<svg xmlns="http://www.w3.org/2000/svg" xmlns:xlink="http://www.w3.org/1999/xlink" width="1133" zoomAndPan="magnify" viewBox="0 0 850.5 1683.749949" height="2245" preserveAspectRatio="xMidYMid meet" version="1.0"><defs><clipPath id="7e1227f104"><path d="M 606 1012 L 849.863281 1012 L 849.863281 1072 L 606 1072 Z M 606 1012 " clip-rule="nonzero"/></clipPath><clipPath id="ef8292cfcf"><path d="M 191 903 L 849.863281 903 L 849.863281 964 L 191 964 Z M 191 903 " clip-rule="nonzero"/></clipPath><clipPath id="c960bafc60"><path d="M 738 663 L 849.863281 663 L 849.863281 737 L 738 737 Z M 738 663 " clip-rule="nonzero"/></clipPath><clipPath id="e22a97b072"><path d="M 738 941 L 849.863281 941 L 849.863281 1015 L 738 1015 Z M 738 941 " clip-rule="nonzero"/></clipPath><clipPath id="08dfc417fb"><path d="M 108 774 L 849.863281 774 L 849.863281 841 L 108 841 Z M 108 774 " clip-rule="nonzero"/></clipPath><clipPath id="b3f1845f9a"><path d="M 633 733 L 849.863281 733 L 849.863281 805 L 633 805 Z M 633 733 " clip-rule="nonzero"/></clipPath><clipPath id="5c5f69d32b"><path d="M 606 606 L 849.863281 606 L 849.863281 667 L 606 667 Z M 606 606 " clip-rule="nonzero"/></clipPath><clipPath id="eecd83b662"><path d="M 402 629 L 849.863281 629 L 849.863281 701 L 402 701 Z M 402 629 " clip-rule="nonzero"/></clipPath><clipPath id="53a7f7df31"><path d="M 35.84375 714 L 849.863281 714 L 849.863281 775 L 35.84375 775 Z M 35.84375 714 " clip-rule="nonzero"/></clipPath><clipPath id="460926d390"><path d="M 606 461 L 849.863281 461 L 849.863281 521 L 606 521 Z M 606 461 " clip-rule="nonzero"/></clipPath><clipPath id="3fba2a0173"><path d="M 209 353 L 849.863281 353 L 849.863281 413 L 209 413 Z M 209 353 " clip-rule="nonzero"/></clipPath><clipPath id="0846b2cb8b"><path d="M 738 112 L 849.863281 112 L 849.863281 186 L 738 186 Z M 738 112 " clip-rule="nonzero"/></clipPath><clipPath id="be0595f6d0"><path d="M 738 390 L 849.863281 390 L 849.863281 464 L 738 464 Z M 738 390 " clip-rule="nonzero"/></clipPath><clipPath id="245d7c68b6"><path d="M 633 322 L 849.863281 322 L 849.863281 394 L 633 394 Z M 633 322 " clip-rule="nonzero"/></clipPath><clipPath id="5e4e4d2b09"><path d="M 350 223 L 849.863281 223 L 849.863281 290 L 350 290 Z M 350 223 " clip-rule="nonzero"/></clipPath><clipPath id="1ab4e02b2e"><path d="M 606 55 L 849.863281 55 L 849.863281 116 L 606 116 Z M 606 55 " clip-rule="nonzero"/></clipPath><clipPath id="9f0dbcead0"><path d="M 278 163 L 849.863281 163 L 849.863281 224 L 278 224 Z M 278 163 " clip-rule="nonzero"/></clipPath><clipPath id="2e6acd1e56"><path d="M 313 1454 L 849.863281 1454 L 849.863281 1515 L 313 1515 Z M 313 1454 " clip-rule="nonzero"/></clipPath><clipPath id="5508c1798e"><path d="M 738 1492 L 849.863281 1492 L 849.863281 1566 L 738 1566 Z M 738 1492 " clip-rule="nonzero"/></clipPath><clipPath id="58ca6ffd5c"><path d="M 633 1424 L 849.863281 1424 L 849.863281 1496 L 633 1496 Z M 633 1424 " clip-rule="nonzero"/></clipPath><clipPath id="a90fe5ccda"><path d="M 606 1157 L 849.863281 1157 L 849.863281 1218 L 606 1218 Z M 606 1157 " clip-rule="nonzero"/></clipPath><clipPath id="603bd18c04"><path d="M 489 1180 L 849.863281 1180 L 849.863281 1252 L 489 1252 Z M 489 1180 " clip-rule="nonzero"/></clipPath><clipPath id="a013ac764c"><path d="M 157 1265 L 849.863281 1265 L 849.863281 1326 L 157 1326 Z M 157 1265 " clip-rule="nonzero"/></clipPath><clipPath id="bbe3c1a337"><path d="M 489 1528 L 849.863281 1528 L 849.863281 1601 L 489 1601 Z M 489 1528 " clip-rule="nonzero"/></clipPath><clipPath id="5ff4330a42"><path d="M 229 1324 L 849.863281 1324 L 849.863281 1392 L 229 1392 Z M 229 1324 " clip-rule="nonzero"/></clipPath><clipPath id="fde8cc5895"><path d="M 420 977 L 849.863281 977 L 849.863281 1050 L 420 1050 Z M 420 977 " clip-rule="nonzero"/></clipPath><clipPath id="742e3b80f6"><path d="M 350 426 L 849.863281 426 L 849.863281 499 L 350 499 Z M 350 426 " clip-rule="nonzero"/></clipPath><clipPath id="dc89b9f16a"><path d="M 390 78 L 849.863281 78 L 849.863281 150 L 390 150 Z M 390 78 " clip-rule="nonzero"/></clipPath><clipPath id="a3a9abfedf"><path d="M 633 1284 L 849.863281 1284 L 849.863281 1356 L 633 1356 Z M 633 1284 " clip-rule="nonzero"/></clipPath><clipPath id="7c0c2369c0"><path d="M 606 1563 L 849.863281 1563 L 849.863281 1623 L 606 1623 Z M 606 1563 " clip-rule="nonzero"/></clipPath><clipPath id="b0b43a6b3b"><path d="M 738 1214 L 849.863281 1214 L 849.863281 1288 L 738 1288 Z M 738 1214 " clip-rule="nonzero"/></clipPath><clipPath id="8aa0f815e2"><path d="M 633 873 L 849.863281 873 L 849.863281 945 L 633 945 Z M 633 873 " clip-rule="nonzero"/></clipPath><clipPath id="3e6b6f3e96"><path d="M 633 182 L 849.863281 182 L 849.863281 254 L 633 254 Z M 633 182 " clip-rule="nonzero"/></clipPath><clipPath id="2aa5ec8a2b"><path d="M 686 0.394531 L 838 0.394531 L 838 70 L 686 70 Z M 686 0.394531 " clip-rule="nonzero"/></clipPath></defs><g clip-path="url(#7e1227f104)"><path fill="#ffffff" d="M 777.53125 1068.074219 L 643.351562 1068.074219 L 631.261719 1055.984375 C 635.476562 1050.476562 635.078125 1042.574219 630.042969 1037.542969 C 624.554688 1032.050781 615.664062 1032.050781 610.183594 1037.542969 C 604.695312 1043.023438 604.695312 1051.917969 610.183594 1057.402344 C 615.21875 1062.433594 623.117188 1062.835938 628.621094 1058.621094 L 641.804688 1071.804688 L 779.074219 1071.804688 L 835.089844 1015.789062 L 849.886719 1015.789062 L 849.886719 1012.058594 L 833.546875 1012.058594 L 777.53125 1068.074219 " fill-opacity="1" fill-rule="nonzero"/></g><g clip-path="url(#ef8292cfcf)"><path fill="#ffffff" d="M 757.210938 958.167969 L 549.113281 958.167969 L 513.1875 922.246094 L 233.828125 922.246094 C 232.460938 911.9375 223.652344 903.976562 212.972656 903.976562 C 201.339844 903.976562 191.910156 913.410156 191.910156 925.042969 C 191.910156 936.675781 201.339844 946.109375 212.972656 946.109375 C 223.652344 946.109375 232.460938 938.148438 233.828125 927.847656 L 510.863281 927.847656 L 546.796875 963.773438 L 759.527344 963.773438 L 811.824219 911.476562 L 849.886719 911.476562 L 849.886719 905.882812 L 809.5 905.882812 L 757.210938 958.167969 " fill-opacity="1" fill-rule="nonzero"/></g><g clip-path="url(#c960bafc60)"><path fill="#ffffff" d="M 763.226562 685.839844 C 767.441406 680.335938 767.042969 672.4375 762.007812 667.402344 C 756.519531 661.914062 747.628906 661.914062 742.148438 667.402344 C 736.660156 672.882812 736.660156 681.773438 742.148438 687.261719 C 747.175781 692.296875 755.082031 692.6875 760.585938 688.480469 L 808.644531 736.535156 L 849.886719 736.535156 L 849.886719 732.800781 L 810.1875 732.800781 L 763.226562 685.839844 " fill-opacity="1" fill-rule="nonzero"/></g><g clip-path="url(#e22a97b072)"><path fill="#ffffff" d="M 760.585938 989.730469 C 755.082031 985.515625 747.175781 985.917969 742.148438 990.949219 C 736.660156 996.4375 736.660156 1005.328125 742.148438 1010.8125 C 747.628906 1016.292969 756.519531 1016.292969 762.007812 1010.8125 C 767.042969 1005.777344 767.441406 997.875 763.226562 992.367188 L 810.1875 945.410156 L 849.886719 945.410156 L 849.886719 941.671875 L 808.644531 941.671875 L 760.585938 989.730469 " fill-opacity="1" fill-rule="nonzero"/></g><g clip-path="url(#08dfc417fb)"><path fill="#ffffff" d="M 715.648438 795.085938 L 155.5625 795.085938 C 154.167969 783.238281 144.085938 774.019531 131.875 774.019531 C 118.714844 774.019531 108.011719 784.722656 108.011719 797.882812 C 108.011719 811.042969 118.714844 821.753906 131.875 821.753906 C 144.085938 821.753906 154.167969 812.523438 155.5625 800.6875 L 713.328125 800.6875 L 753.46875 840.835938 L 849.886719 840.835938 L 849.886719 835.230469 L 755.792969 835.230469 L 715.648438 795.085938 " fill-opacity="1" fill-rule="nonzero"/></g><g clip-path="url(#b3f1845f9a)"><path fill="#ffffff" d="M 739.042969 745.734375 L 661.808594 745.734375 C 660.890625 738.867188 655.023438 733.558594 647.902344 733.558594 C 640.152344 733.558594 633.863281 739.847656 633.863281 747.601562 C 633.863281 755.359375 640.152344 761.644531 647.902344 761.644531 C 655.023438 761.644531 660.890625 756.339844 661.808594 749.46875 L 737.5 749.46875 L 792.457031 804.429688 L 849.886719 804.429688 L 849.886719 800.695312 L 794.003906 800.695312 L 739.042969 745.734375 " fill-opacity="1" fill-rule="nonzero"/></g><g clip-path="url(#5c5f69d32b)"><path fill="#ffffff" d="M 630.042969 640.671875 C 635.078125 635.636719 635.476562 627.738281 631.261719 622.226562 L 643.351562 610.140625 L 777.53125 610.140625 L 833.546875 666.15625 L 849.886719 666.15625 L 849.886719 662.421875 L 835.089844 662.421875 L 779.074219 606.40625 L 641.804688 606.40625 L 628.621094 619.585938 C 623.117188 615.378906 615.21875 615.777344 610.183594 620.8125 C 604.695312 626.292969 604.695312 635.183594 610.183594 640.671875 C 615.664062 646.152344 624.554688 646.152344 630.042969 640.671875 " fill-opacity="1" fill-rule="nonzero"/></g><g clip-path="url(#eecd83b662)"><path fill="#ffffff" d="M 426.574219 693.828125 C 438.78125 693.828125 448.867188 684.605469 450.261719 672.761719 L 630.660156 672.761719 L 668.636719 634.785156 L 768.421875 634.785156 L 834.398438 700.757812 L 849.886719 700.757812 L 849.886719 695.15625 L 836.722656 695.15625 L 770.742188 629.179688 L 666.320312 629.179688 L 628.339844 667.15625 L 450.261719 667.15625 C 448.867188 655.3125 438.78125 646.09375 426.574219 646.09375 C 413.414062 646.09375 402.707031 656.804688 402.707031 669.957031 C 402.707031 683.113281 413.414062 693.828125 426.574219 693.828125 " fill-opacity="1" fill-rule="nonzero"/></g><g clip-path="url(#53a7f7df31)"><path fill="#ffffff" d="M 56.859375 774.226562 C 67.539062 774.226562 76.347656 766.273438 77.714844 755.96875 L 513.1875 755.96875 L 549.113281 720.042969 L 757.210938 720.042969 L 809.5 772.332031 L 849.886719 772.332031 L 849.886719 766.726562 L 811.824219 766.726562 L 759.527344 714.4375 L 546.796875 714.4375 L 510.863281 750.363281 L 77.714844 750.363281 C 76.347656 740.058594 67.539062 732.101562 56.859375 732.101562 C 45.226562 732.101562 35.792969 741.535156 35.792969 753.167969 C 35.792969 764.796875 45.226562 774.226562 56.859375 774.226562 " fill-opacity="1" fill-rule="nonzero"/></g><path fill="#ffffff" d="M 783.121094 564.6875 L 557.988281 564.6875 C 557.074219 557.816406 551.207031 552.503906 544.085938 552.503906 C 536.328125 552.503906 530.039062 558.800781 530.039062 566.550781 C 530.039062 574.308594 536.328125 580.597656 544.085938 580.597656 C 551.207031 580.597656 557.074219 575.292969 557.988281 568.421875 L 784.664062 568.421875 L 837.578125 515.503906 L 836.03125 511.769531 L 783.121094 564.6875 " fill-opacity="1" fill-rule="nonzero"/><g clip-path="url(#460926d390)"><path fill="#ffffff" d="M 777.53125 517.089844 L 643.351562 517.089844 L 631.261719 505.007812 C 635.476562 499.5 635.078125 491.597656 630.042969 486.5625 C 624.554688 481.074219 615.664062 481.074219 610.183594 486.5625 C 604.695312 492.046875 604.695312 500.941406 610.183594 506.421875 C 615.21875 511.457031 623.117188 511.859375 628.621094 507.644531 L 641.804688 520.828125 L 779.074219 520.828125 L 835.089844 464.8125 L 849.886719 464.8125 L 849.886719 461.078125 L 833.546875 461.078125 L 777.53125 517.089844 " fill-opacity="1" fill-rule="nonzero"/></g><g clip-path="url(#3fba2a0173)"><path fill="#ffffff" d="M 757.210938 407.191406 L 549.113281 407.191406 L 513.1875 371.265625 L 251.175781 371.265625 C 249.808594 360.960938 241 353 230.320312 353 C 218.6875 353 209.253906 362.433594 209.253906 374.066406 C 209.253906 385.699219 218.6875 395.132812 230.320312 395.132812 C 241 395.132812 249.808594 387.171875 251.175781 376.863281 L 510.863281 376.863281 L 546.796875 412.796875 L 759.527344 412.796875 L 811.824219 360.5 L 849.886719 360.5 L 849.886719 354.898438 L 809.5 354.898438 L 757.210938 407.191406 " fill-opacity="1" fill-rule="nonzero"/></g><g clip-path="url(#0846b2cb8b)"><path fill="#ffffff" d="M 763.226562 134.859375 C 767.441406 129.351562 767.042969 121.453125 762.007812 116.417969 C 756.519531 110.9375 747.628906 110.9375 742.148438 116.417969 C 736.660156 121.90625 736.660156 130.796875 742.148438 136.277344 C 747.175781 141.3125 755.082031 141.710938 760.585938 137.503906 L 808.644531 185.558594 L 849.886719 185.558594 L 849.886719 181.824219 L 810.1875 181.824219 L 763.226562 134.859375 " fill-opacity="1" fill-rule="nonzero"/></g><g clip-path="url(#be0595f6d0)"><path fill="#ffffff" d="M 760.585938 438.753906 C 755.082031 434.539062 747.175781 434.9375 742.148438 439.972656 C 736.660156 445.457031 736.660156 454.351562 742.148438 459.832031 C 747.628906 465.316406 756.519531 465.316406 762.007812 459.832031 C 767.042969 454.800781 767.441406 446.898438 763.226562 441.390625 L 810.1875 394.433594 L 849.886719 394.433594 L 849.886719 390.695312 L 808.644531 390.695312 L 760.585938 438.753906 " fill-opacity="1" fill-rule="nonzero"/></g><g clip-path="url(#245d7c68b6)"><path fill="#ffffff" d="M 737.5 377.765625 L 661.808594 377.765625 C 660.890625 370.894531 655.023438 365.589844 647.902344 365.589844 C 640.152344 365.589844 633.863281 371.878906 633.863281 379.628906 C 633.863281 387.386719 640.152344 393.675781 647.902344 393.675781 C 655.023438 393.675781 660.890625 388.371094 661.808594 381.5 L 739.042969 381.5 L 794.003906 326.535156 L 849.886719 326.535156 L 849.886719 322.800781 L 792.457031 322.800781 L 737.5 377.765625 " fill-opacity="1" fill-rule="nonzero"/></g><g clip-path="url(#5e4e4d2b09)"><path fill="#ffffff" d="M 715.648438 244.105469 L 398.40625 244.105469 C 397.011719 232.261719 386.929688 223.039062 374.71875 223.039062 C 361.558594 223.039062 350.855469 233.746094 350.855469 246.90625 C 350.855469 260.0625 361.558594 270.777344 374.71875 270.777344 C 386.929688 270.777344 397.011719 261.546875 398.40625 249.710938 L 713.328125 249.710938 L 753.46875 289.851562 L 849.886719 289.851562 L 849.886719 284.253906 L 755.792969 284.253906 L 715.648438 244.105469 " fill-opacity="1" fill-rule="nonzero"/></g><g clip-path="url(#1ab4e02b2e)"><path fill="#ffffff" d="M 630.042969 89.695312 C 635.078125 84.660156 635.476562 76.757812 631.261719 71.25 L 643.351562 59.164062 L 777.53125 59.164062 L 833.546875 115.175781 L 849.886719 115.175781 L 849.886719 111.445312 L 835.089844 111.445312 L 779.074219 55.429688 L 641.804688 55.429688 L 628.621094 68.609375 C 623.117188 64.398438 615.21875 64.800781 610.183594 69.835938 C 604.695312 75.316406 604.695312 84.210938 610.183594 89.695312 C 615.664062 95.175781 624.554688 95.175781 630.042969 89.695312 " fill-opacity="1" fill-rule="nonzero"/></g><g clip-path="url(#9f0dbcead0)"><path fill="#ffffff" d="M 299.703125 223.257812 C 310.382812 223.257812 319.191406 215.296875 320.558594 204.992188 L 513.1875 204.992188 L 549.113281 169.066406 L 757.210938 169.066406 L 809.5 221.355469 L 849.886719 221.355469 L 849.886719 215.75 L 811.824219 215.75 L 759.527344 163.453125 L 546.796875 163.453125 L 510.863281 199.386719 L 320.558594 199.386719 C 319.191406 189.082031 310.382812 181.125 299.703125 181.125 C 288.070312 181.125 278.636719 190.558594 278.636719 202.183594 C 278.636719 213.820312 288.070312 223.257812 299.703125 223.257812 " fill-opacity="1" fill-rule="nonzero"/></g><path fill="#ffffff" d="M 783.121094 1666.644531 L 714.101562 1666.644531 C 713.1875 1659.773438 707.320312 1654.46875 700.199219 1654.46875 C 692.441406 1654.46875 686.152344 1660.753906 686.152344 1668.507812 C 686.152344 1676.265625 692.441406 1682.550781 700.199219 1682.550781 C 707.320312 1682.550781 713.1875 1677.246094 714.101562 1670.375 L 784.664062 1670.375 L 837.578125 1617.457031 L 836.03125 1613.722656 L 783.121094 1666.644531 " fill-opacity="1" fill-rule="nonzero"/><g clip-path="url(#2e6acd1e56)"><path fill="#ffffff" d="M 757.210938 1509.148438 L 549.113281 1509.148438 L 513.1875 1473.222656 L 355.25 1473.222656 C 353.882812 1462.917969 345.074219 1454.953125 334.394531 1454.953125 C 322.761719 1454.953125 313.328125 1464.386719 313.328125 1476.019531 C 313.328125 1487.65625 322.761719 1497.085938 334.394531 1497.085938 C 345.074219 1497.085938 353.882812 1489.132812 355.25 1478.824219 L 510.863281 1478.824219 L 546.796875 1514.75 L 759.527344 1514.75 L 811.824219 1462.460938 L 849.886719 1462.460938 L 849.886719 1456.859375 L 809.5 1456.859375 L 757.210938 1509.148438 " fill-opacity="1" fill-rule="nonzero"/></g><g clip-path="url(#5508c1798e)"><path fill="#ffffff" d="M 760.585938 1540.707031 C 755.082031 1536.5 747.175781 1536.894531 742.148438 1541.929688 C 736.660156 1547.417969 736.660156 1556.304688 742.148438 1561.789062 C 747.628906 1567.277344 756.519531 1567.277344 762.007812 1561.789062 C 767.042969 1556.753906 767.441406 1548.851562 763.226562 1543.351562 L 810.1875 1496.386719 L 849.886719 1496.386719 L 849.886719 1492.648438 L 808.644531 1492.648438 L 760.585938 1540.707031 " fill-opacity="1" fill-rule="nonzero"/></g><g clip-path="url(#58ca6ffd5c)"><path fill="#ffffff" d="M 737.5 1479.71875 L 661.808594 1479.71875 C 660.890625 1472.847656 655.023438 1467.542969 647.902344 1467.542969 C 640.152344 1467.542969 633.863281 1473.832031 633.863281 1481.589844 C 633.863281 1489.339844 640.152344 1495.628906 647.902344 1495.628906 C 655.023438 1495.628906 660.890625 1490.324219 661.808594 1483.453125 L 739.042969 1483.453125 L 794.003906 1428.496094 L 849.886719 1428.496094 L 849.886719 1424.761719 L 792.457031 1424.761719 L 737.5 1479.71875 " fill-opacity="1" fill-rule="nonzero"/></g><g clip-path="url(#a90fe5ccda)"><path fill="#ffffff" d="M 630.042969 1191.648438 C 635.078125 1186.613281 635.476562 1178.714844 631.261719 1173.207031 L 643.351562 1161.117188 L 777.53125 1161.117188 L 833.546875 1217.132812 L 849.886719 1217.132812 L 849.886719 1213.398438 L 835.089844 1213.398438 L 779.074219 1157.382812 L 641.804688 1157.382812 L 628.621094 1170.5625 C 623.117188 1166.355469 615.21875 1166.753906 610.183594 1171.789062 C 604.695312 1177.269531 604.695312 1186.167969 610.183594 1191.648438 C 615.664062 1197.128906 624.554688 1197.128906 630.042969 1191.648438 " fill-opacity="1" fill-rule="nonzero"/></g><path fill="#ffffff" d="M 387.972656 1131.019531 C 395.09375 1131.019531 400.960938 1125.707031 401.875 1118.835938 L 783.121094 1118.835938 L 836.03125 1171.753906 L 837.578125 1168.023438 L 784.664062 1115.101562 L 401.875 1115.101562 C 400.960938 1108.234375 395.09375 1102.925781 387.972656 1102.925781 C 380.214844 1102.925781 373.925781 1109.214844 373.925781 1116.972656 C 373.925781 1124.726562 380.214844 1131.019531 387.972656 1131.019531 " fill-opacity="1" fill-rule="nonzero"/><g clip-path="url(#603bd18c04)"><path fill="#ffffff" d="M 513.304688 1244.804688 C 525.511719 1244.804688 535.59375 1235.582031 536.992188 1223.738281 L 630.660156 1223.738281 L 668.636719 1185.761719 L 768.421875 1185.761719 L 834.398438 1251.734375 L 849.886719 1251.734375 L 849.886719 1246.140625 L 836.722656 1246.140625 L 770.742188 1180.15625 L 666.320312 1180.15625 L 628.339844 1218.136719 L 536.992188 1218.136719 C 535.59375 1206.292969 525.511719 1197.070312 513.304688 1197.070312 C 500.144531 1197.070312 489.4375 1207.78125 489.4375 1220.941406 C 489.4375 1234.097656 500.144531 1244.804688 513.304688 1244.804688 " fill-opacity="1" fill-rule="nonzero"/></g><g clip-path="url(#a013ac764c)"><path fill="#ffffff" d="M 178.28125 1325.210938 C 188.960938 1325.210938 197.769531 1317.25 199.136719 1306.945312 L 513.1875 1306.945312 L 549.113281 1271.019531 L 757.210938 1271.019531 L 809.5 1323.308594 L 849.886719 1323.308594 L 849.886719 1317.703125 L 811.824219 1317.703125 L 759.527344 1265.417969 L 546.796875 1265.417969 L 510.863281 1301.339844 L 199.136719 1301.339844 C 197.769531 1291.035156 188.960938 1283.082031 178.28125 1283.082031 C 166.648438 1283.082031 157.214844 1292.511719 157.214844 1304.148438 C 157.214844 1315.773438 166.648438 1325.210938 178.28125 1325.210938 " fill-opacity="1" fill-rule="nonzero"/></g><g clip-path="url(#bbe3c1a337)"><path fill="#ffffff" d="M 513.8125 1573.328125 C 505.910156 1573.328125 499.5 1566.917969 499.5 1559.015625 C 499.5 1551.117188 505.910156 1544.707031 513.8125 1544.707031 C 521.710938 1544.707031 528.121094 1551.117188 528.121094 1559.015625 C 528.121094 1566.917969 521.710938 1573.328125 513.8125 1573.328125 Z M 768.421875 1594.40625 L 668.636719 1594.40625 L 630.660156 1556.429688 L 536.992188 1556.429688 C 535.59375 1544.585938 525.511719 1535.363281 513.304688 1535.363281 C 500.144531 1535.363281 489.433594 1546.070312 489.433594 1559.226562 C 489.433594 1572.386719 500.144531 1583.097656 513.304688 1583.097656 C 525.511719 1583.097656 535.59375 1573.871094 536.992188 1562.03125 L 628.339844 1562.03125 L 666.320312 1600.011719 L 770.742188 1600.011719 L 836.722656 1534.027344 L 849.886719 1534.027344 L 849.886719 1528.425781 L 834.398438 1528.425781 L 768.421875 1594.40625 " fill-opacity="1" fill-rule="nonzero"/></g><g clip-path="url(#5ff4330a42)"><path fill="#ffffff" d="M 267.28125 1348.433594 C 267.28125 1356.332031 260.871094 1362.742188 252.972656 1362.742188 C 245.0625 1362.742188 238.660156 1356.332031 238.660156 1348.433594 C 238.660156 1340.527344 245.0625 1334.121094 252.972656 1334.121094 C 260.871094 1334.121094 267.28125 1340.527344 267.28125 1348.433594 Z M 229.433594 1348.867188 C 229.433594 1362.023438 240.136719 1372.730469 253.296875 1372.730469 C 265.507812 1372.730469 275.589844 1363.503906 276.984375 1351.664062 L 713.328125 1351.664062 L 753.46875 1391.8125 L 849.886719 1391.8125 L 849.886719 1386.207031 L 755.792969 1386.207031 L 715.648438 1346.0625 L 276.984375 1346.0625 C 275.589844 1334.21875 265.507812 1324.996094 253.296875 1324.996094 C 240.136719 1324.996094 229.433594 1335.707031 229.433594 1348.867188 " fill-opacity="1" fill-rule="nonzero"/></g><g clip-path="url(#fde8cc5895)"><path fill="#ffffff" d="M 444.144531 1023.027344 C 436.242188 1023.027344 429.832031 1016.625 429.832031 1008.71875 C 429.832031 1000.816406 436.242188 994.40625 444.144531 994.40625 C 452.050781 994.40625 458.453125 1000.816406 458.453125 1008.71875 C 458.453125 1016.625 452.050781 1023.027344 444.144531 1023.027344 Z M 768.421875 1043.429688 L 668.636719 1043.429688 L 630.660156 1005.449219 L 467.605469 1005.449219 C 466.210938 993.605469 456.128906 984.386719 443.917969 984.386719 C 430.761719 984.386719 420.046875 995.089844 420.046875 1008.25 C 420.046875 1021.40625 430.761719 1032.113281 443.917969 1032.113281 C 456.128906 1032.113281 466.210938 1022.890625 467.605469 1011.054688 L 628.339844 1011.054688 L 666.320312 1049.03125 L 770.742188 1049.03125 L 836.722656 983.050781 L 849.886719 983.050781 L 849.886719 977.453125 L 834.398438 977.453125 L 768.421875 1043.429688 " fill-opacity="1" fill-rule="nonzero"/></g><g clip-path="url(#742e3b80f6)"><path fill="#ffffff" d="M 373.925781 471.628906 C 366.023438 471.628906 359.613281 465.226562 359.613281 457.320312 C 359.613281 449.417969 366.023438 443.007812 373.925781 443.007812 C 381.832031 443.007812 388.234375 449.417969 388.234375 457.320312 C 388.234375 465.226562 381.832031 471.628906 373.925781 471.628906 Z M 768.421875 492.453125 L 668.636719 492.453125 L 630.660156 454.472656 L 398.222656 454.472656 C 396.828125 442.628906 386.746094 433.40625 374.535156 433.40625 C 361.375 433.40625 350.664062 444.113281 350.664062 457.273438 C 350.664062 470.429688 361.375 481.136719 374.535156 481.136719 C 386.746094 481.136719 396.828125 471.914062 398.222656 460.070312 L 628.339844 460.070312 L 666.320312 498.054688 L 770.742188 498.054688 L 836.722656 432.074219 L 849.886719 432.074219 L 849.886719 426.46875 L 834.398438 426.46875 L 768.421875 492.453125 " fill-opacity="1" fill-rule="nonzero"/></g><g clip-path="url(#dc89b9f16a)"><path fill="#ffffff" d="M 414.410156 132.902344 C 406.511719 132.902344 400.101562 126.5 400.101562 118.59375 C 400.101562 110.691406 406.511719 104.28125 414.410156 104.28125 C 422.316406 104.28125 428.722656 110.691406 428.722656 118.59375 C 428.722656 126.5 422.316406 132.902344 414.410156 132.902344 Z M 628.339844 116.179688 L 438.117188 116.179688 C 436.722656 104.335938 426.640625 95.113281 414.429688 95.113281 C 401.273438 95.113281 390.558594 105.828125 390.558594 118.980469 C 390.558594 132.136719 401.273438 142.851562 414.429688 142.851562 C 426.640625 142.851562 436.722656 133.628906 438.117188 121.785156 L 630.660156 121.785156 L 668.636719 83.804688 L 768.421875 83.804688 L 834.398438 149.78125 L 849.886719 149.78125 L 849.886719 144.183594 L 836.722656 144.183594 L 770.742188 78.203125 L 666.320312 78.203125 L 628.339844 116.179688 " fill-opacity="1" fill-rule="nonzero"/></g><g clip-path="url(#a3a9abfedf)"><path fill="#ffffff" d="M 655.179688 1298.394531 C 655.179688 1302.230469 652.078125 1305.332031 648.242188 1305.332031 C 644.40625 1305.332031 641.304688 1302.230469 641.304688 1298.394531 C 641.304688 1294.558594 644.40625 1291.457031 648.242188 1291.457031 C 652.078125 1291.457031 655.179688 1294.558594 655.179688 1298.394531 Z M 633.863281 1298.578125 C 633.863281 1306.335938 640.152344 1312.625 647.902344 1312.625 C 655.023438 1312.625 660.890625 1307.316406 661.808594 1300.445312 L 737.5 1300.445312 L 792.457031 1355.40625 L 849.886719 1355.40625 L 849.886719 1351.671875 L 794.003906 1351.671875 L 739.042969 1296.714844 L 661.808594 1296.714844 C 660.890625 1289.84375 655.023438 1284.539062 647.902344 1284.539062 C 640.152344 1284.539062 633.863281 1290.824219 633.863281 1298.578125 " fill-opacity="1" fill-rule="nonzero"/></g><g clip-path="url(#7c0c2369c0)"><path fill="#ffffff" d="M 613.40625 1598.621094 C 613.40625 1594.792969 616.511719 1591.683594 620.347656 1591.683594 C 624.175781 1591.683594 627.285156 1594.792969 627.285156 1598.621094 C 627.285156 1602.457031 624.175781 1605.558594 620.347656 1605.558594 C 616.511719 1605.558594 613.40625 1602.457031 613.40625 1598.621094 Z M 777.53125 1619.050781 L 643.351562 1619.050781 L 631.261719 1606.960938 C 635.476562 1601.453125 635.078125 1593.554688 630.042969 1588.519531 C 624.554688 1583.035156 615.664062 1583.035156 610.183594 1588.519531 C 604.695312 1594 604.695312 1602.898438 610.183594 1608.378906 C 615.21875 1613.414062 623.117188 1613.8125 628.621094 1609.597656 L 641.804688 1622.785156 L 779.074219 1622.785156 L 835.089844 1566.769531 L 849.886719 1566.769531 L 849.886719 1563.035156 L 833.546875 1563.035156 L 777.53125 1619.050781 " fill-opacity="1" fill-rule="nonzero"/></g><path fill="#ffffff" d="M 717.625 1100.21875 C 713.789062 1100.21875 710.6875 1097.113281 710.6875 1093.277344 C 710.6875 1089.445312 713.789062 1086.339844 717.625 1086.339844 C 721.460938 1086.339844 724.5625 1089.445312 724.5625 1093.277344 C 724.5625 1097.113281 721.460938 1100.21875 717.625 1100.21875 Z M 783.121094 1091.382812 L 731.449219 1091.382812 C 730.535156 1084.511719 724.664062 1079.207031 717.542969 1079.207031 C 709.785156 1079.207031 703.5 1085.492188 703.5 1093.246094 C 703.5 1101.003906 709.785156 1107.289062 717.542969 1107.289062 C 724.664062 1107.289062 730.535156 1101.984375 731.449219 1095.113281 L 784.664062 1095.113281 L 837.578125 1042.195312 L 836.03125 1038.460938 L 783.121094 1091.382812 " fill-opacity="1" fill-rule="nonzero"/><g clip-path="url(#b0b43a6b3b)"><path fill="#ffffff" d="M 759.039062 1228.144531 C 759.039062 1231.976562 755.9375 1235.082031 752.101562 1235.082031 C 748.265625 1235.082031 745.164062 1231.976562 745.164062 1228.144531 C 745.164062 1224.308594 748.265625 1221.203125 752.101562 1221.203125 C 755.9375 1221.203125 759.039062 1224.308594 759.039062 1228.144531 Z M 742.148438 1218.378906 C 736.660156 1223.859375 736.660156 1232.75 742.148438 1238.238281 C 747.175781 1243.273438 755.082031 1243.667969 760.585938 1239.457031 L 808.644531 1287.519531 L 849.886719 1287.519531 L 849.886719 1283.777344 L 810.1875 1283.777344 L 763.226562 1236.816406 C 767.441406 1231.3125 767.042969 1223.414062 762.007812 1218.378906 C 756.519531 1212.890625 747.628906 1212.890625 742.148438 1218.378906 " fill-opacity="1" fill-rule="nonzero"/></g><g clip-path="url(#8aa0f815e2)"><path fill="#ffffff" d="M 648.101562 937.925781 C 644.265625 937.925781 641.160156 934.8125 641.160156 930.984375 C 641.160156 927.15625 644.265625 924.046875 648.101562 924.046875 C 651.929688 924.046875 655.039062 927.15625 655.039062 930.984375 C 655.039062 934.8125 651.929688 937.925781 648.101562 937.925781 Z M 737.5 928.742188 L 661.808594 928.742188 C 660.890625 921.871094 655.023438 916.566406 647.902344 916.566406 C 640.152344 916.566406 633.863281 922.855469 633.863281 930.613281 C 633.863281 938.363281 640.152344 944.652344 647.902344 944.652344 C 655.023438 944.652344 660.890625 939.347656 661.808594 932.476562 L 739.042969 932.476562 L 794.003906 877.511719 L 849.886719 877.511719 L 849.886719 873.777344 L 792.457031 873.777344 L 737.5 928.742188 " fill-opacity="1" fill-rule="nonzero"/></g><path fill="#ffffff" d="M 751.449219 671.195312 C 755.285156 671.195312 758.390625 674.300781 758.390625 678.132812 C 758.390625 681.964844 755.285156 685.074219 751.449219 685.074219 C 747.617188 685.074219 744.511719 681.964844 744.511719 678.132812 C 744.511719 674.300781 747.617188 671.195312 751.449219 671.195312 " fill-opacity="1" fill-rule="nonzero"/><path fill="#ffffff" d="M 707.359375 588.804688 C 707.359375 592.632812 704.257812 595.742188 700.421875 595.742188 C 696.59375 595.742188 693.484375 592.632812 693.484375 588.804688 C 693.484375 584.96875 696.59375 581.863281 700.421875 581.863281 C 704.257812 581.863281 707.359375 584.96875 707.359375 588.804688 Z M 686.152344 588.546875 C 686.152344 596.296875 692.441406 602.585938 700.199219 602.585938 C 707.320312 602.585938 713.1875 597.28125 714.101562 590.410156 L 783.121094 590.410156 L 836.03125 643.328125 L 837.578125 639.59375 L 784.664062 586.675781 L 714.101562 586.675781 C 713.1875 579.804688 707.320312 574.5 700.199219 574.5 C 692.441406 574.5 686.152344 580.789062 686.152344 588.546875 " fill-opacity="1" fill-rule="nonzero"/><g clip-path="url(#3e6b6f3e96)"><path fill="#ffffff" d="M 654.746094 196.824219 C 654.746094 200.652344 651.644531 203.765625 647.808594 203.765625 C 643.972656 203.765625 640.871094 200.652344 640.871094 196.824219 C 640.871094 192.992188 643.972656 189.886719 647.808594 189.886719 C 651.644531 189.886719 654.746094 192.992188 654.746094 196.824219 Z M 633.863281 196.621094 C 633.863281 204.378906 640.152344 210.667969 647.902344 210.667969 C 655.023438 210.667969 660.890625 205.363281 661.808594 198.492188 L 737.5 198.492188 L 792.457031 253.449219 L 849.886719 253.449219 L 849.886719 249.71875 L 794.003906 249.71875 L 739.042969 194.753906 L 661.808594 194.753906 C 660.890625 187.886719 655.023438 182.582031 647.902344 182.582031 C 640.152344 182.582031 633.863281 188.871094 633.863281 196.621094 " fill-opacity="1" fill-rule="nonzero"/></g><g clip-path="url(#2aa5ec8a2b)"><path fill="#ffffff" d="M 707.449219 15.085938 C 707.449219 18.914062 704.339844 22.023438 700.511719 22.023438 C 696.675781 22.023438 693.570312 18.914062 693.570312 15.085938 C 693.570312 11.25 696.675781 8.148438 700.511719 8.148438 C 704.339844 8.148438 707.449219 11.25 707.449219 15.085938 Z M 686.152344 15.019531 C 686.152344 22.769531 692.441406 29.058594 700.199219 29.058594 C 707.320312 29.058594 713.1875 23.753906 714.101562 16.882812 L 783.121094 16.882812 L 836.03125 69.800781 L 837.578125 66.066406 L 784.664062 13.148438 L 714.101562 13.148438 C 713.1875 6.277344 707.320312 0.972656 700.199219 0.972656 C 692.441406 0.972656 686.152344 7.261719 686.152344 15.019531 " fill-opacity="1" fill-rule="nonzero"/></g><path fill="#ffffff" d="M 544.023438 560.621094 C 547.851562 560.621094 550.960938 563.734375 550.960938 567.5625 C 550.960938 571.394531 547.851562 574.5 544.023438 574.5 C 540.1875 574.5 537.085938 571.394531 537.085938 567.5625 C 537.085938 563.734375 540.1875 560.621094 544.023438 560.621094 " fill-opacity="1" fill-rule="nonzero"/></svg>