<svg xmlns="http://www.w3.org/2000/svg" xmlns:xlink="http://www.w3.org/1999/xlink" width="1133" zoomAndPan="magnify" viewBox="0 0 850.5 1683.749949" height="2245" preserveAspectRatio="xMidYMid meet" version="1.0"><defs><clipPath id="a6556589f4"><path d="M 0.0234375 611 L 244 611 L 244 672 L 0.0234375 672 Z M 0.0234375 611 " clip-rule="nonzero"/></clipPath><clipPath id="ddbca3dace"><path d="M 0.0234375 719 L 658 719 L 658 780 L 0.0234375 780 Z M 0.0234375 719 " clip-rule="nonzero"/></clipPath><clipPath id="b8e405d0d6"><path d="M 0.0234375 946 L 112 946 L 112 1021 L 0.0234375 1021 Z M 0.0234375 946 " clip-rule="nonzero"/></clipPath><clipPath id="3daa31e111"><path d="M 0.0234375 668 L 112 668 L 112 742 L 0.0234375 742 Z M 0.0234375 668 " clip-rule="nonzero"/></clipPath><clipPath id="44573f7995"><path d="M 0.0234375 842 L 742 842 L 742 910 L 0.0234375 910 Z M 0.0234375 842 " clip-rule="nonzero"/></clipPath><clipPath id="c212d127e3"><path d="M 0.0234375 879 L 217 879 L 217 950 L 0.0234375 950 Z M 0.0234375 879 " clip-rule="nonzero"/></clipPath><clipPath id="5089fa772a"><path d="M 0.0234375 1017 L 244 1017 L 244 1078 L 0.0234375 1078 Z M 0.0234375 1017 " clip-rule="nonzero"/></clipPath><clipPath id="6e7db4ccdf"><path d="M 0.0234375 982 L 448 982 L 448 1055 L 0.0234375 1055 Z M 0.0234375 982 " clip-rule="nonzero"/></clipPath><clipPath id="5e3b963913"><path d="M 0.0234375 909 L 814.042969 909 L 814.042969 970 L 0.0234375 970 Z M 0.0234375 909 " clip-rule="nonzero"/></clipPath><clipPath id="8fab830301"><path d="M 0.0234375 1162 L 244 1162 L 244 1223 L 0.0234375 1223 Z M 0.0234375 1162 " clip-rule="nonzero"/></clipPath><clipPath id="4d409b8184"><path d="M 0.0234375 1270 L 641 1270 L 641 1331 L 0.0234375 1331 Z M 0.0234375 1270 " clip-rule="nonzero"/></clipPath><clipPath id="f38323f661"><path d="M 0.0234375 1497 L 112 1497 L 112 1572 L 0.0234375 1572 Z M 0.0234375 1497 " clip-rule="nonzero"/></clipPath><clipPath id="7953fe6d52"><path d="M 0.0234375 1219 L 112 1219 L 112 1293 L 0.0234375 1293 Z M 0.0234375 1219 " clip-rule="nonzero"/></clipPath><clipPath id="ba964b17b4"><path d="M 0.0234375 1289 L 217 1289 L 217 1361 L 0.0234375 1361 Z M 0.0234375 1289 " clip-rule="nonzero"/></clipPath><clipPath id="b7e21bc137"><path d="M 0.0234375 1393 L 500 1393 L 500 1461 L 0.0234375 1461 Z M 0.0234375 1393 " clip-rule="nonzero"/></clipPath><clipPath id="d54975aa4b"><path d="M 0.0234375 1568 L 244 1568 L 244 1629 L 0.0234375 1629 Z M 0.0234375 1568 " clip-rule="nonzero"/></clipPath><clipPath id="00568767da"><path d="M 0.0234375 1460 L 572 1460 L 572 1521 L 0.0234375 1521 Z M 0.0234375 1460 " clip-rule="nonzero"/></clipPath><clipPath id="6b14ade173"><path d="M 12 0.371094 L 164 0.371094 L 164 70 L 12 70 Z M 12 0.371094 " clip-rule="nonzero"/></clipPath><clipPath id="3f126da474"><path d="M 0.0234375 168 L 537 168 L 537 229 L 0.0234375 229 Z M 0.0234375 168 " clip-rule="nonzero"/></clipPath><clipPath id="a09a96fa33"><path d="M 0.0234375 117 L 112 117 L 112 191 L 0.0234375 191 Z M 0.0234375 117 " clip-rule="nonzero"/></clipPath><clipPath id="40d5f51d2d"><path d="M 0.0234375 187 L 217 187 L 217 259 L 0.0234375 259 Z M 0.0234375 187 " clip-rule="nonzero"/></clipPath><clipPath id="409da8ddcf"><path d="M 0.0234375 466 L 244 466 L 244 527 L 0.0234375 527 Z M 0.0234375 466 " clip-rule="nonzero"/></clipPath><clipPath id="b8a57cb8f9"><path d="M 0.0234375 431 L 361 431 L 361 504 L 0.0234375 504 Z M 0.0234375 431 " clip-rule="nonzero"/></clipPath><clipPath id="7eed6532ba"><path d="M 0.0234375 358 L 693 358 L 693 419 L 0.0234375 419 Z M 0.0234375 358 " clip-rule="nonzero"/></clipPath><clipPath id="b7ed36ebb6"><path d="M 0.0234375 83 L 361 83 L 361 156 L 0.0234375 156 Z M 0.0234375 83 " clip-rule="nonzero"/></clipPath><clipPath id="22bbbff0f0"><path d="M 0.0234375 291 L 621 291 L 621 359 L 0.0234375 359 Z M 0.0234375 291 " clip-rule="nonzero"/></clipPath><clipPath id="09d012f720"><path d="M 0.0234375 634 L 430 634 L 430 707 L 0.0234375 707 Z M 0.0234375 634 " clip-rule="nonzero"/></clipPath><clipPath id="3ac8f9827e"><path d="M 0.0234375 1185 L 500 1185 L 500 1258 L 0.0234375 1258 Z M 0.0234375 1185 " clip-rule="nonzero"/></clipPath><clipPath id="e8521360ae"><path d="M 0.0234375 1533 L 460 1533 L 460 1606 L 0.0234375 1606 Z M 0.0234375 1533 " clip-rule="nonzero"/></clipPath><clipPath id="dca5da5c40"><path d="M 0.0234375 328 L 217 328 L 217 399 L 0.0234375 399 Z M 0.0234375 328 " clip-rule="nonzero"/></clipPath><clipPath id="16c820eab7"><path d="M 0.0234375 60 L 244 60 L 244 121 L 0.0234375 121 Z M 0.0234375 60 " clip-rule="nonzero"/></clipPath><clipPath id="857b7f6bd5"><path d="M 0.0234375 396 L 112 396 L 112 470 L 0.0234375 470 Z M 0.0234375 396 " clip-rule="nonzero"/></clipPath><clipPath id="fe032092e8"><path d="M 0.0234375 738 L 217 738 L 217 810 L 0.0234375 810 Z M 0.0234375 738 " clip-rule="nonzero"/></clipPath><clipPath id="297399ee78"><path d="M 0.0234375 1430 L 217 1430 L 217 1501 L 0.0234375 1501 Z M 0.0234375 1430 " clip-rule="nonzero"/></clipPath></defs><g clip-path="url(#a6556589f4)"><path fill="#ffffff" d="M 72.359375 615.453125 L 206.539062 615.453125 L 218.625 627.539062 C 214.410156 633.046875 214.8125 640.949219 219.84375 645.984375 C 225.335938 651.472656 234.222656 651.472656 239.707031 645.984375 C 245.195312 640.503906 245.195312 631.605469 239.707031 626.125 C 234.671875 621.089844 226.769531 620.691406 221.269531 624.902344 L 208.082031 611.71875 L 70.8125 611.71875 L 14.796875 667.734375 L 0 667.734375 L 0 671.46875 L 16.34375 671.46875 L 72.359375 615.453125 " fill-opacity="1" fill-rule="nonzero"/></g><g clip-path="url(#ddbca3dace)"><path fill="#ffffff" d="M 92.679688 725.355469 L 300.773438 725.355469 L 336.699219 761.28125 L 616.058594 761.28125 C 617.425781 771.585938 626.234375 779.546875 636.914062 779.546875 C 648.546875 779.546875 657.980469 770.117188 657.980469 758.480469 C 657.980469 746.847656 648.546875 737.414062 636.914062 737.414062 C 626.234375 737.414062 617.425781 745.378906 616.058594 755.675781 L 339.023438 755.675781 L 303.09375 719.75 L 90.359375 719.75 L 38.066406 772.046875 L 0 772.046875 L 0 777.644531 L 40.390625 777.644531 L 92.679688 725.355469 " fill-opacity="1" fill-rule="nonzero"/></g><g clip-path="url(#b8e405d0d6)"><path fill="#ffffff" d="M 86.660156 997.6875 C 82.445312 1003.1875 82.847656 1011.089844 87.882812 1016.121094 C 93.371094 1021.609375 102.257812 1021.609375 107.742188 1016.121094 C 113.230469 1010.640625 113.230469 1001.75 107.742188 996.261719 C 102.714844 991.230469 94.804688 990.835938 89.304688 995.042969 L 41.242188 946.988281 L 0 946.988281 L 0 950.722656 L 39.699219 950.722656 L 86.660156 997.6875 " fill-opacity="1" fill-rule="nonzero"/></g><g clip-path="url(#3daa31e111)"><path fill="#ffffff" d="M 89.304688 693.792969 C 94.804688 698.007812 102.714844 697.609375 107.742188 692.574219 C 113.230469 687.085938 113.230469 678.195312 107.742188 672.714844 C 102.257812 667.230469 93.371094 667.230469 87.882812 672.714844 C 82.847656 677.75 82.445312 685.648438 86.660156 691.15625 L 39.699219 738.113281 L 0 738.113281 L 0 741.855469 L 41.242188 741.855469 L 89.304688 693.792969 " fill-opacity="1" fill-rule="nonzero"/></g><g clip-path="url(#44573f7995)"><path fill="#ffffff" d="M 134.242188 888.441406 L 694.324219 888.441406 C 695.71875 900.285156 705.804688 909.507812 718.011719 909.507812 C 731.171875 909.507812 741.878906 898.800781 741.878906 885.640625 C 741.878906 872.484375 731.171875 861.769531 718.011719 861.769531 C 705.804688 861.769531 695.71875 871 694.324219 882.835938 L 136.558594 882.835938 L 96.417969 842.691406 L 0 842.691406 L 0 848.292969 L 94.09375 848.292969 L 134.242188 888.441406 " fill-opacity="1" fill-rule="nonzero"/></g><g clip-path="url(#c212d127e3)"><path fill="#ffffff" d="M 110.84375 937.789062 L 188.082031 937.789062 C 188.996094 944.660156 194.863281 949.964844 201.984375 949.964844 C 209.734375 949.964844 216.023438 943.675781 216.023438 935.925781 C 216.023438 928.167969 209.734375 921.878906 201.984375 921.878906 C 194.863281 921.878906 188.996094 927.183594 188.082031 934.054688 L 112.390625 934.054688 L 57.429688 879.097656 L 0 879.097656 L 0 882.832031 L 55.886719 882.832031 L 110.84375 937.789062 " fill-opacity="1" fill-rule="nonzero"/></g><g clip-path="url(#5089fa772a)"><path fill="#ffffff" d="M 219.84375 1042.851562 C 214.8125 1047.886719 214.410156 1055.789062 218.625 1061.296875 L 206.539062 1073.386719 L 72.359375 1073.386719 L 16.34375 1017.371094 L 0 1017.371094 L 0 1021.101562 L 14.796875 1021.101562 L 70.8125 1077.117188 L 208.082031 1077.117188 L 221.269531 1063.9375 C 226.769531 1068.148438 234.671875 1067.746094 239.707031 1062.714844 C 245.195312 1057.230469 245.195312 1048.339844 239.707031 1042.851562 C 234.222656 1037.371094 225.335938 1037.371094 219.84375 1042.851562 " fill-opacity="1" fill-rule="nonzero"/></g><g clip-path="url(#6e7db4ccdf)"><path fill="#ffffff" d="M 423.316406 989.699219 C 411.105469 989.699219 401.023438 998.917969 399.625 1010.761719 L 219.230469 1010.761719 L 181.25 1048.742188 L 81.464844 1048.742188 L 15.488281 982.765625 L 0 982.765625 L 0 988.371094 L 13.164062 988.371094 L 79.148438 1054.34375 L 183.566406 1054.34375 L 221.546875 1016.367188 L 399.625 1016.367188 C 401.023438 1028.210938 411.105469 1037.433594 423.316406 1037.433594 C 436.472656 1037.433594 447.179688 1026.71875 447.179688 1013.570312 C 447.179688 1000.410156 436.472656 989.699219 423.316406 989.699219 " fill-opacity="1" fill-rule="nonzero"/></g><g clip-path="url(#5e3b963913)"><path fill="#ffffff" d="M 793.027344 909.296875 C 782.347656 909.296875 773.539062 917.25 772.171875 927.558594 L 336.699219 927.558594 L 300.773438 963.480469 L 92.679688 963.480469 L 40.390625 911.195312 L 0 911.195312 L 0 916.796875 L 38.066406 916.796875 L 90.359375 969.085938 L 303.09375 969.085938 L 339.023438 933.160156 L 772.171875 933.160156 C 773.539062 943.464844 782.347656 951.421875 793.027344 951.421875 C 804.660156 951.421875 814.09375 941.988281 814.09375 930.355469 C 814.09375 918.726562 804.660156 909.296875 793.027344 909.296875 " fill-opacity="1" fill-rule="nonzero"/></g><path fill="#ffffff" d="M 66.769531 1118.835938 L 291.898438 1118.835938 C 292.8125 1125.707031 298.679688 1131.019531 305.804688 1131.019531 C 313.5625 1131.019531 319.847656 1124.726562 319.847656 1116.972656 C 319.847656 1109.214844 313.5625 1102.925781 305.804688 1102.925781 C 298.679688 1102.925781 292.8125 1108.234375 291.898438 1115.101562 L 65.222656 1115.101562 L 12.3125 1168.023438 L 13.855469 1171.753906 L 66.769531 1118.835938 " fill-opacity="1" fill-rule="nonzero"/><g clip-path="url(#8fab830301)"><path fill="#ffffff" d="M 72.359375 1166.4375 L 206.539062 1166.4375 L 218.625 1178.515625 C 214.410156 1184.027344 214.8125 1191.925781 219.84375 1196.960938 C 225.335938 1202.449219 234.222656 1202.449219 239.707031 1196.960938 C 245.195312 1191.480469 245.195312 1182.582031 239.707031 1177.101562 C 234.671875 1172.066406 226.769531 1171.667969 221.269531 1175.882812 L 208.082031 1162.695312 L 70.8125 1162.695312 L 14.796875 1218.710938 L 0 1218.710938 L 0 1222.445312 L 16.34375 1222.445312 L 72.359375 1166.4375 " fill-opacity="1" fill-rule="nonzero"/></g><g clip-path="url(#4d409b8184)"><path fill="#ffffff" d="M 92.679688 1276.332031 L 300.773438 1276.332031 L 336.699219 1312.257812 L 598.710938 1312.257812 C 600.082031 1322.5625 608.890625 1330.523438 619.566406 1330.523438 C 631.203125 1330.523438 640.632812 1321.09375 640.632812 1309.457031 C 640.632812 1297.824219 631.203125 1288.394531 619.566406 1288.394531 C 608.890625 1288.394531 600.082031 1296.355469 598.710938 1306.660156 L 339.023438 1306.660156 L 303.09375 1270.730469 L 90.359375 1270.730469 L 38.066406 1323.023438 L 0 1323.023438 L 0 1328.628906 L 40.390625 1328.628906 L 92.679688 1276.332031 " fill-opacity="1" fill-rule="nonzero"/></g><g clip-path="url(#f38323f661)"><path fill="#ffffff" d="M 86.660156 1548.664062 C 82.445312 1554.171875 82.847656 1562.074219 87.882812 1567.105469 C 93.371094 1572.589844 102.257812 1572.589844 107.742188 1567.105469 C 113.230469 1561.617188 113.230469 1552.730469 107.742188 1547.246094 C 102.714844 1542.214844 94.804688 1541.8125 89.304688 1546.019531 L 41.242188 1497.96875 L 0 1497.96875 L 0 1501.699219 L 39.699219 1501.699219 L 86.660156 1548.664062 " fill-opacity="1" fill-rule="nonzero"/></g><g clip-path="url(#7953fe6d52)"><path fill="#ffffff" d="M 89.304688 1244.769531 C 94.804688 1248.984375 102.714844 1248.585938 107.742188 1243.550781 C 113.230469 1238.070312 113.230469 1229.171875 107.742188 1223.691406 C 102.257812 1218.210938 93.371094 1218.210938 87.882812 1223.691406 C 82.847656 1228.726562 82.445312 1236.625 86.660156 1242.136719 L 39.699219 1289.089844 L 0 1289.089844 L 0 1292.832031 L 41.242188 1292.832031 L 89.304688 1244.769531 " fill-opacity="1" fill-rule="nonzero"/></g><g clip-path="url(#ba964b17b4)"><path fill="#ffffff" d="M 112.390625 1305.757812 L 188.082031 1305.757812 C 188.996094 1312.628906 194.863281 1317.933594 201.984375 1317.933594 C 209.734375 1317.933594 216.023438 1311.648438 216.023438 1303.894531 C 216.023438 1296.136719 209.734375 1289.851562 201.984375 1289.851562 C 194.863281 1289.851562 188.996094 1295.15625 188.082031 1302.027344 L 110.84375 1302.027344 L 55.886719 1356.992188 L 0 1356.992188 L 0 1360.722656 L 57.429688 1360.722656 L 112.390625 1305.757812 " fill-opacity="1" fill-rule="nonzero"/></g><g clip-path="url(#b7e21bc137)"><path fill="#ffffff" d="M 134.242188 1439.417969 L 451.480469 1439.417969 C 452.878906 1451.261719 462.960938 1460.484375 475.167969 1460.484375 C 488.328125 1460.484375 499.035156 1449.777344 499.035156 1436.621094 C 499.035156 1423.460938 488.328125 1412.75 475.167969 1412.75 C 462.960938 1412.75 452.878906 1421.976562 451.480469 1433.8125 L 136.558594 1433.8125 L 96.417969 1393.675781 L 0 1393.675781 L 0 1399.273438 L 94.09375 1399.273438 L 134.242188 1439.417969 " fill-opacity="1" fill-rule="nonzero"/></g><g clip-path="url(#d54975aa4b)"><path fill="#ffffff" d="M 219.84375 1593.832031 C 214.8125 1598.863281 214.410156 1606.765625 218.625 1612.273438 L 206.539062 1624.363281 L 72.359375 1624.363281 L 16.34375 1568.347656 L 0 1568.347656 L 0 1572.082031 L 14.796875 1572.082031 L 70.8125 1628.09375 L 208.082031 1628.09375 L 221.269531 1614.917969 C 226.769531 1619.125 234.671875 1618.726562 239.707031 1613.691406 C 245.195312 1608.207031 245.195312 1599.3125 239.707031 1593.832031 C 234.222656 1588.347656 225.335938 1588.347656 219.84375 1593.832031 " fill-opacity="1" fill-rule="nonzero"/></g><g clip-path="url(#00568767da)"><path fill="#ffffff" d="M 550.183594 1460.265625 C 539.503906 1460.265625 530.695312 1468.226562 529.328125 1478.535156 L 336.699219 1478.535156 L 300.773438 1514.460938 L 92.679688 1514.460938 L 40.390625 1462.171875 L 0 1462.171875 L 0 1467.773438 L 38.066406 1467.773438 L 90.359375 1520.070312 L 303.09375 1520.070312 L 339.023438 1484.136719 L 529.328125 1484.136719 C 530.695312 1494.445312 539.503906 1502.398438 550.183594 1502.398438 C 561.816406 1502.398438 571.25 1492.964844 571.25 1481.339844 C 571.25 1469.707031 561.816406 1460.265625 550.183594 1460.265625 " fill-opacity="1" fill-rule="nonzero"/></g><g clip-path="url(#6b14ade173)"><path fill="#ffffff" d="M 66.769531 16.882812 L 135.785156 16.882812 C 136.699219 23.753906 142.566406 29.058594 149.691406 29.058594 C 157.449219 29.058594 163.734375 22.769531 163.734375 15.019531 C 163.734375 7.261719 157.449219 0.972656 149.691406 0.972656 C 142.566406 0.972656 136.699219 6.277344 135.785156 13.148438 L 65.222656 13.148438 L 12.3125 66.066406 L 13.855469 69.800781 L 66.769531 16.882812 " fill-opacity="1" fill-rule="nonzero"/></g><g clip-path="url(#3f126da474)"><path fill="#ffffff" d="M 92.679688 174.378906 L 300.773438 174.378906 L 336.699219 210.300781 L 494.636719 210.300781 C 496.003906 220.609375 504.8125 228.570312 515.492188 228.570312 C 527.125 228.570312 536.558594 219.136719 536.558594 207.503906 C 536.558594 195.871094 527.125 186.4375 515.492188 186.4375 C 504.8125 186.4375 496.003906 194.394531 494.636719 204.699219 L 339.023438 204.699219 L 303.09375 168.773438 L 90.359375 168.773438 L 38.066406 221.0625 L 0 221.0625 L 0 226.664062 L 40.390625 226.664062 L 92.679688 174.378906 " fill-opacity="1" fill-rule="nonzero"/></g><g clip-path="url(#a09a96fa33)"><path fill="#ffffff" d="M 89.304688 142.816406 C 94.804688 147.023438 102.714844 146.628906 107.742188 141.597656 C 113.230469 136.109375 113.230469 127.21875 107.742188 121.738281 C 102.257812 116.25 93.371094 116.25 87.882812 121.738281 C 82.847656 126.769531 82.445312 134.671875 86.660156 140.171875 L 39.699219 187.136719 L 0 187.136719 L 0 190.875 L 41.242188 190.875 L 89.304688 142.816406 " fill-opacity="1" fill-rule="nonzero"/></g><g clip-path="url(#40d5f51d2d)"><path fill="#ffffff" d="M 112.390625 203.804688 L 188.082031 203.804688 C 188.996094 210.675781 194.863281 215.980469 201.984375 215.980469 C 209.734375 215.980469 216.023438 209.691406 216.023438 201.933594 C 216.023438 194.183594 209.734375 187.894531 201.984375 187.894531 C 194.863281 187.894531 188.996094 193.199219 188.082031 200.070312 L 110.84375 200.070312 L 55.886719 255.027344 L 0 255.027344 L 0 258.761719 L 57.429688 258.761719 L 112.390625 203.804688 " fill-opacity="1" fill-rule="nonzero"/></g><g clip-path="url(#409da8ddcf)"><path fill="#ffffff" d="M 219.84375 491.875 C 214.8125 496.910156 214.410156 504.8125 218.625 510.320312 L 206.539062 522.40625 L 72.359375 522.40625 L 16.34375 466.390625 L 0 466.390625 L 0 470.125 L 14.796875 470.125 L 70.8125 526.140625 L 208.082031 526.140625 L 221.269531 512.960938 C 226.769531 517.167969 234.671875 516.769531 239.707031 511.734375 C 245.195312 506.253906 245.195312 497.355469 239.707031 491.875 C 234.222656 486.394531 225.335938 486.394531 219.84375 491.875 " fill-opacity="1" fill-rule="nonzero"/></g><path fill="#ffffff" d="M 461.917969 552.503906 C 454.796875 552.503906 448.925781 557.816406 448.011719 564.6875 L 66.769531 564.6875 L 13.855469 511.769531 L 12.3125 515.503906 L 65.222656 568.421875 L 448.011719 568.421875 C 448.925781 575.292969 454.796875 580.597656 461.917969 580.597656 C 469.675781 580.597656 475.960938 574.308594 475.960938 566.550781 C 475.960938 558.800781 469.675781 552.503906 461.917969 552.503906 " fill-opacity="1" fill-rule="nonzero"/><g clip-path="url(#b8a57cb8f9)"><path fill="#ffffff" d="M 336.585938 438.71875 C 324.375 438.71875 314.292969 447.941406 312.898438 459.785156 L 219.230469 459.785156 L 181.25 497.765625 L 81.464844 497.765625 L 15.488281 431.789062 L 0 431.789062 L 0 437.386719 L 13.164062 437.386719 L 79.148438 503.367188 L 183.566406 503.367188 L 221.546875 465.390625 L 312.898438 465.390625 C 314.292969 477.234375 324.375 486.457031 336.585938 486.457031 C 349.742188 486.457031 360.449219 475.742188 360.449219 462.585938 C 360.449219 449.425781 349.742188 438.71875 336.585938 438.71875 " fill-opacity="1" fill-rule="nonzero"/></g><g clip-path="url(#7eed6532ba)"><path fill="#ffffff" d="M 671.605469 358.3125 C 660.925781 358.3125 652.117188 366.273438 650.75 376.578125 L 336.699219 376.578125 L 300.773438 412.503906 L 92.679688 412.503906 L 40.390625 360.214844 L 0 360.214844 L 0 365.820312 L 38.066406 365.820312 L 90.359375 418.109375 L 303.09375 418.109375 L 339.023438 382.183594 L 650.75 382.183594 C 652.117188 392.488281 660.925781 400.445312 671.605469 400.445312 C 683.238281 400.445312 692.671875 391.011719 692.671875 379.378906 C 692.671875 367.75 683.238281 358.3125 671.605469 358.3125 " fill-opacity="1" fill-rule="nonzero"/></g><g clip-path="url(#b7ed36ebb6)"><path fill="#ffffff" d="M 336.078125 110.199219 C 343.976562 110.199219 350.386719 116.605469 350.386719 124.507812 C 350.386719 132.410156 343.976562 138.816406 336.078125 138.816406 C 328.175781 138.816406 321.765625 132.410156 321.765625 124.507812 C 321.765625 116.605469 328.175781 110.199219 336.078125 110.199219 Z M 81.464844 89.117188 L 181.25 89.117188 L 219.230469 127.097656 L 312.898438 127.097656 C 314.292969 138.941406 324.375 148.160156 336.585938 148.160156 C 349.742188 148.160156 360.457031 137.457031 360.457031 124.296875 C 360.457031 111.140625 349.742188 100.425781 336.585938 100.425781 C 324.375 100.425781 314.292969 109.65625 312.898438 121.492188 L 221.546875 121.492188 L 183.566406 83.515625 L 79.148438 83.515625 L 13.164062 149.496094 L 0 149.496094 L 0 155.101562 L 15.488281 155.101562 L 81.464844 89.117188 " fill-opacity="1" fill-rule="nonzero"/></g><g clip-path="url(#22bbbff0f0)"><path fill="#ffffff" d="M 582.605469 335.089844 C 582.605469 327.191406 589.015625 320.78125 596.917969 320.78125 C 604.824219 320.78125 611.226562 327.191406 611.226562 335.089844 C 611.226562 343 604.824219 349.402344 596.917969 349.402344 C 589.015625 349.402344 582.605469 343 582.605469 335.089844 Z M 620.457031 334.65625 C 620.457031 321.5 609.75 310.792969 596.589844 310.792969 C 584.382812 310.792969 574.300781 320.023438 572.902344 331.859375 L 136.558594 331.859375 L 96.417969 291.714844 L 0 291.714844 L 0 297.316406 L 94.09375 297.316406 L 134.242188 337.464844 L 572.902344 337.464844 C 574.300781 349.308594 584.382812 358.527344 596.589844 358.527344 C 609.75 358.527344 620.457031 347.816406 620.457031 334.65625 " fill-opacity="1" fill-rule="nonzero"/></g><g clip-path="url(#09d012f720)"><path fill="#ffffff" d="M 405.746094 660.496094 C 413.644531 660.496094 420.054688 666.898438 420.054688 674.808594 C 420.054688 682.707031 413.644531 689.117188 405.746094 689.117188 C 397.839844 689.117188 391.433594 682.707031 391.433594 674.808594 C 391.433594 666.898438 397.839844 660.496094 405.746094 660.496094 Z M 81.464844 640.09375 L 181.25 640.09375 L 219.230469 678.074219 L 382.28125 678.074219 C 383.675781 689.917969 393.757812 699.140625 405.96875 699.140625 C 419.128906 699.140625 429.839844 688.433594 429.839844 675.273438 C 429.839844 662.117188 419.128906 651.410156 405.96875 651.410156 C 393.757812 651.410156 383.675781 660.632812 382.28125 672.46875 L 221.546875 672.46875 L 183.566406 634.492188 L 79.148438 634.492188 L 13.164062 700.472656 L 0 700.472656 L 0 706.070312 L 15.488281 706.070312 L 81.464844 640.09375 " fill-opacity="1" fill-rule="nonzero"/></g><g clip-path="url(#3ac8f9827e)"><path fill="#ffffff" d="M 475.960938 1211.894531 C 483.863281 1211.894531 490.273438 1218.296875 490.273438 1226.207031 C 490.273438 1234.105469 483.863281 1240.515625 475.960938 1240.515625 C 468.054688 1240.515625 461.652344 1234.105469 461.652344 1226.207031 C 461.652344 1218.296875 468.054688 1211.894531 475.960938 1211.894531 Z M 81.464844 1191.074219 L 181.25 1191.074219 L 219.230469 1229.050781 L 451.664062 1229.050781 C 453.058594 1240.894531 463.144531 1250.117188 475.351562 1250.117188 C 488.511719 1250.117188 499.222656 1239.410156 499.222656 1226.253906 C 499.222656 1213.09375 488.511719 1202.386719 475.351562 1202.386719 C 463.144531 1202.386719 453.058594 1211.609375 451.664062 1223.453125 L 221.546875 1223.453125 L 183.566406 1185.46875 L 79.148438 1185.46875 L 13.164062 1251.453125 L 0 1251.453125 L 0 1257.054688 L 15.488281 1257.054688 L 81.464844 1191.074219 " fill-opacity="1" fill-rule="nonzero"/></g><g clip-path="url(#e8521360ae)"><path fill="#ffffff" d="M 435.476562 1550.621094 C 443.378906 1550.621094 449.789062 1557.023438 449.789062 1564.933594 C 449.789062 1572.832031 443.378906 1579.242188 435.476562 1579.242188 C 427.570312 1579.242188 421.167969 1572.832031 421.167969 1564.933594 C 421.167969 1557.023438 427.570312 1550.621094 435.476562 1550.621094 Z M 221.546875 1567.34375 L 411.769531 1567.34375 C 413.164062 1579.1875 423.246094 1588.410156 435.457031 1588.410156 C 448.617188 1588.410156 459.328125 1577.699219 459.328125 1564.546875 C 459.328125 1551.386719 448.617188 1540.675781 435.457031 1540.675781 C 423.246094 1540.675781 413.164062 1549.898438 411.769531 1561.742188 L 219.230469 1561.742188 L 181.25 1599.71875 L 81.464844 1599.71875 L 15.488281 1533.742188 L 0 1533.742188 L 0 1539.339844 L 13.164062 1539.339844 L 79.148438 1605.324219 L 183.566406 1605.324219 L 221.546875 1567.34375 " fill-opacity="1" fill-rule="nonzero"/></g><g clip-path="url(#dca5da5c40)"><path fill="#ffffff" d="M 194.707031 385.128906 C 194.707031 381.296875 197.8125 378.191406 201.644531 378.191406 C 205.480469 378.191406 208.585938 381.296875 208.585938 385.128906 C 208.585938 388.964844 205.480469 392.070312 201.644531 392.070312 C 197.8125 392.070312 194.707031 388.964844 194.707031 385.128906 Z M 216.023438 384.949219 C 216.023438 377.1875 209.734375 370.902344 201.984375 370.902344 C 194.863281 370.902344 188.996094 376.207031 188.082031 383.078125 L 112.390625 383.078125 L 57.429688 328.121094 L 0 328.121094 L 0 331.851562 L 55.886719 331.851562 L 110.84375 386.8125 L 188.082031 386.8125 C 188.996094 393.679688 194.863281 398.988281 201.984375 398.988281 C 209.734375 398.988281 216.023438 392.699219 216.023438 384.949219 " fill-opacity="1" fill-rule="nonzero"/></g><g clip-path="url(#16c820eab7)"><path fill="#ffffff" d="M 236.480469 84.902344 C 236.480469 88.730469 233.375 91.84375 229.542969 91.84375 C 225.714844 91.84375 222.601562 88.730469 222.601562 84.902344 C 222.601562 81.070312 225.714844 77.964844 229.542969 77.964844 C 233.375 77.964844 236.480469 81.070312 236.480469 84.902344 Z M 72.359375 64.472656 L 206.539062 64.472656 L 218.625 76.5625 C 214.410156 82.070312 214.8125 89.972656 219.84375 95.007812 C 225.335938 100.488281 234.222656 100.488281 239.707031 95.007812 C 245.195312 89.523438 245.195312 80.628906 239.707031 75.144531 C 234.671875 70.113281 226.769531 69.710938 221.269531 73.925781 L 208.082031 60.742188 L 70.8125 60.742188 L 14.796875 116.757812 L 0 116.757812 L 0 120.488281 L 16.34375 120.488281 L 72.359375 64.472656 " fill-opacity="1" fill-rule="nonzero"/></g><path fill="#ffffff" d="M 132.261719 583.308594 C 136.097656 583.308594 139.199219 586.410156 139.199219 590.246094 C 139.199219 594.082031 136.097656 597.183594 132.261719 597.183594 C 128.425781 597.183594 125.324219 594.082031 125.324219 590.246094 C 125.324219 586.410156 128.425781 583.308594 132.261719 583.308594 Z M 66.769531 592.144531 L 118.441406 592.144531 C 119.355469 599.015625 125.222656 604.320312 132.34375 604.320312 C 140.101562 604.320312 146.390625 598.03125 146.390625 590.28125 C 146.390625 582.523438 140.101562 576.234375 132.34375 576.234375 C 125.222656 576.234375 119.355469 581.539062 118.441406 588.410156 L 65.222656 588.410156 L 12.3125 641.328125 L 13.855469 645.0625 L 66.769531 592.144531 " fill-opacity="1" fill-rule="nonzero"/><g clip-path="url(#857b7f6bd5)"><path fill="#ffffff" d="M 90.847656 455.382812 C 90.847656 451.546875 93.953125 448.441406 97.789062 448.441406 C 101.621094 448.441406 104.726562 451.546875 104.726562 455.382812 C 104.726562 459.214844 101.621094 462.320312 97.789062 462.320312 C 93.953125 462.320312 90.847656 459.214844 90.847656 455.382812 Z M 107.742188 465.144531 C 113.230469 459.664062 113.230469 450.773438 107.742188 445.285156 C 102.714844 440.25 94.804688 439.859375 89.304688 444.066406 L 41.242188 396.003906 L 0 396.003906 L 0 399.746094 L 39.699219 399.746094 L 86.660156 446.707031 C 82.445312 452.210938 82.847656 460.109375 87.882812 465.144531 C 93.371094 470.632812 102.257812 470.632812 107.742188 465.144531 " fill-opacity="1" fill-rule="nonzero"/></g><g clip-path="url(#fe032092e8)"><path fill="#ffffff" d="M 201.789062 745.601562 C 205.625 745.601562 208.726562 748.710938 208.726562 752.539062 C 208.726562 756.367188 205.625 759.476562 201.789062 759.476562 C 197.960938 759.476562 194.851562 756.367188 194.851562 752.539062 C 194.851562 748.710938 197.960938 745.601562 201.789062 745.601562 Z M 112.390625 754.78125 L 188.082031 754.78125 C 188.996094 761.652344 194.863281 766.957031 201.984375 766.957031 C 209.734375 766.957031 216.023438 760.671875 216.023438 752.910156 C 216.023438 745.160156 209.734375 738.871094 201.984375 738.871094 C 194.863281 738.871094 188.996094 744.179688 188.082031 751.046875 L 110.84375 751.046875 L 55.886719 806.011719 L 0 806.011719 L 0 809.746094 L 57.429688 809.746094 L 112.390625 754.78125 " fill-opacity="1" fill-rule="nonzero"/></g><path fill="#ffffff" d="M 98.4375 1012.328125 C 94.601562 1012.328125 91.5 1009.226562 91.5 1005.390625 C 91.5 1001.5625 94.601562 998.453125 98.4375 998.453125 C 102.273438 998.453125 105.375 1001.5625 105.375 1005.390625 C 105.375 1009.226562 102.273438 1012.328125 98.4375 1012.328125 " fill-opacity="1" fill-rule="nonzero"/><path fill="#ffffff" d="M 142.527344 1094.722656 C 142.527344 1090.894531 145.628906 1087.785156 149.464844 1087.785156 C 153.292969 1087.785156 156.402344 1090.894531 156.402344 1094.722656 C 156.402344 1098.558594 153.292969 1101.660156 149.464844 1101.660156 C 145.628906 1101.660156 142.527344 1098.558594 142.527344 1094.722656 Z M 163.734375 1094.980469 C 163.734375 1087.226562 157.449219 1080.941406 149.691406 1080.941406 C 142.566406 1080.941406 136.699219 1086.246094 135.785156 1093.117188 L 66.769531 1093.117188 L 13.855469 1040.195312 L 12.3125 1043.929688 L 65.222656 1096.847656 L 135.785156 1096.847656 C 136.699219 1103.71875 142.566406 1109.023438 149.691406 1109.023438 C 157.449219 1109.023438 163.734375 1102.738281 163.734375 1094.980469 " fill-opacity="1" fill-rule="nonzero"/><g clip-path="url(#297399ee78)"><path fill="#ffffff" d="M 195.140625 1486.699219 C 195.140625 1482.871094 198.246094 1479.761719 202.078125 1479.761719 C 205.914062 1479.761719 209.019531 1482.871094 209.019531 1486.699219 C 209.019531 1490.535156 205.914062 1493.636719 202.078125 1493.636719 C 198.246094 1493.636719 195.140625 1490.535156 195.140625 1486.699219 Z M 216.023438 1486.902344 C 216.023438 1479.144531 209.734375 1472.855469 201.984375 1472.855469 C 194.863281 1472.855469 188.996094 1478.160156 188.082031 1485.03125 L 112.390625 1485.03125 L 57.429688 1430.074219 L 0 1430.074219 L 0 1433.808594 L 55.886719 1433.808594 L 110.84375 1488.773438 L 188.082031 1488.773438 C 188.996094 1495.636719 194.863281 1500.941406 201.984375 1500.941406 C 209.734375 1500.941406 216.023438 1494.652344 216.023438 1486.902344 " fill-opacity="1" fill-rule="nonzero"/></g><path fill="#ffffff" d="M 142.4375 1668.4375 C 142.4375 1664.609375 145.550781 1661.5 149.378906 1661.5 C 153.214844 1661.5 156.316406 1664.609375 156.316406 1668.4375 C 156.316406 1672.273438 153.214844 1675.375 149.378906 1675.375 C 145.550781 1675.375 142.4375 1672.273438 142.4375 1668.4375 Z M 163.734375 1668.507812 C 163.734375 1660.753906 157.449219 1654.46875 149.691406 1654.46875 C 142.566406 1654.46875 136.699219 1659.773438 135.785156 1666.644531 L 66.769531 1666.644531 L 13.855469 1613.722656 L 12.3125 1617.457031 L 65.222656 1670.375 L 135.785156 1670.375 C 136.699219 1677.246094 142.566406 1682.550781 149.691406 1682.550781 C 157.449219 1682.550781 163.734375 1676.265625 163.734375 1668.507812 " fill-opacity="1" fill-rule="nonzero"/><path fill="#ffffff" d="M 305.863281 1122.902344 C 302.035156 1122.902344 298.925781 1119.792969 298.925781 1115.964844 C 298.925781 1112.128906 302.035156 1109.023438 305.863281 1109.023438 C 309.699219 1109.023438 312.800781 1112.128906 312.800781 1115.964844 C 312.800781 1119.792969 309.699219 1122.902344 305.863281 1122.902344 " fill-opacity="1" fill-rule="nonzero"/></svg>