<svg version="1.1" xmlns="http://www.w3.org/2000/svg" viewBox="0 0 3520 2000" width="3520" height="2000">
  <!-- svg-source:excalidraw -->
  
  <defs>
    <style class="style-fonts">
      @font-face {
        font-family: "Virgil";
        src: url("https://excalidraw.com/Virgil.woff2");
      }
      @font-face {
        font-family: "Cascadia";
        src: url("https://excalidraw.com/Cascadia.woff2");
      }
      @font-face {
        font-family: "Assistant";
        src: url("https://excalidraw.com/Assistant-Regular.woff2");
      }
    </style>
    
  </defs>
  <rect x="0" y="0" width="3520" height="2000" fill="#ffffff"></rect><g stroke-linecap="round" transform="translate(10 630) rotate(0 210 120)"><path d="M32 0 C144.96 -0.83, 254.24 -3.03, 388 0 C406.29 -2.53, 420.38 13.07, 420 32 C420.14 70.15, 420.34 104.21, 420 208 C422.61 229.64, 412.48 238.75, 388 240 C304.31 245.04, 214.91 245.21, 32 240 C8.31 238.12, -1.31 231.21, 0 208 C-2.49 171.64, -0.82 132.73, 0 32 C-3.36 7.29, 11.97 0.31, 32 0" stroke="none" stroke-width="0" fill="#ffc9c9"></path><path d="M32 0 C172.44 -0.25, 314.69 -2.04, 388 0 M32 0 C116.78 -0.04, 199.98 0.35, 388 0 M388 0 C410.14 0.32, 418.78 9.71, 420 32 M388 0 C409.4 0.83, 422.13 8.99, 420 32 M420 32 C420.48 85.74, 419.47 137.67, 420 208 M420 32 C420.4 80.84, 420.83 132.14, 420 208 M420 208 C420.77 228.77, 408.47 239.05, 388 240 M420 208 C420.71 229.33, 407.63 239.66, 388 240 M388 240 C254.59 237.26, 119.3 238.92, 32 240 M388 240 C282.05 239.73, 176.04 240.42, 32 240 M32 240 C9.61 241.01, -0.89 229.31, 0 208 M32 240 C12.93 241.88, -0.13 229.03, 0 208 M0 208 C0.27 161.4, -0.53 111.8, 0 32 M0 208 C-0.11 164.75, -0.6 119.04, 0 32 M0 32 C-0.5 9.85, 10.7 -1.63, 32 0 M0 32 C1.1 9.86, 9.05 -2.19, 32 0" stroke="#ffc9c9" stroke-width="2" fill="none"></path></g><g transform="translate(179.78333282470703 727.5) rotate(0 40.21666717529297 22.5)"><text x="40.21666717529297" y="31.536" font-family="Virgil, Segoe UI Emoji" font-size="36px" fill="#1e1e1e" text-anchor="middle" style="white-space: pre;" direction="ltr" dominant-baseline="alphabetic">User</text></g><g stroke-linecap="round" transform="translate(770 10) rotate(0 170 139.99999999999994)"><path d="M181.33 1.19 C198.26 -0.04, 217.37 5.61, 233.53 10.81 C249.7 16, 265.01 23.4, 278.31 32.37 C291.61 41.34, 304.1 52.43, 313.36 64.64 C322.62 76.85, 329.58 91.55, 333.87 105.64 C338.15 119.74, 340.09 134.73, 339.09 149.23 C338.09 163.74, 334.23 179.33, 327.88 192.66 C321.52 205.99, 312.25 218.35, 300.96 229.23 C289.67 240.11, 274.91 250.14, 260.13 257.94 C245.35 265.73, 229.26 272.26, 212.29 276.02 C195.32 279.77, 175.88 281.4, 158.31 280.47 C140.73 279.54, 123.04 275.77, 106.85 270.43 C90.66 265.09, 74.5 257.75, 61.16 248.43 C47.82 239.11, 36.25 226.71, 26.83 214.52 C17.42 202.32, 9.04 189.07, 4.66 175.26 C0.29 161.45, -0.77 146.21, 0.58 131.66 C1.93 117.12, 6.22 101.67, 12.76 87.98 C19.3 74.29, 28.58 60.62, 39.83 49.54 C51.07 38.46, 65.4 28.97, 80.24 21.53 C95.09 14.08, 109.05 7.95, 128.89 4.86 C148.72 1.77, 184.51 2.3, 199.25 2.99 C214 3.68, 217.65 6.99, 217.34 9.02 M206.59 3.93 C223.44 4.5, 240.17 10.85, 255.3 18.28 C270.42 25.72, 285.45 37.44, 297.36 48.54 C309.27 59.63, 319.99 71.66, 326.77 84.87 C333.55 98.07, 336.54 113.69, 338.06 127.75 C339.59 141.82, 339.58 155.24, 335.93 169.25 C332.28 183.27, 325.33 199.43, 316.18 211.84 C307.03 224.25, 294.1 234.08, 281.03 243.71 C267.95 253.35, 253.47 263.56, 237.73 269.65 C222 275.74, 203.83 279.1, 186.61 280.24 C169.39 281.38, 151.82 279.88, 134.42 276.5 C117.03 273.11, 97.68 267.19, 82.22 259.94 C66.76 252.68, 53.05 243.84, 41.65 232.94 C30.26 222.04, 20.82 207.94, 13.83 194.54 C6.85 181.13, 1.5 166.61, -0.24 152.54 C-1.98 138.47, -0.7 124.08, 3.39 110.14 C7.49 96.2, 15.19 81.21, 24.32 68.89 C33.45 56.58, 45.3 45.97, 58.17 36.26 C71.04 26.54, 85.79 16.5, 101.56 10.58 C117.33 4.66, 135.04 2.12, 152.81 0.74 C170.58 -0.63, 199.23 1.27, 208.17 2.32 C217.11 3.38, 207.28 4.81, 206.45 7.06" stroke="none" stroke-width="0" fill="#ffd8a8"></path><path d="M174.23 0.27 C190.86 -1.46, 211.06 4.2, 227.52 8.87 C243.97 13.54, 259.32 19.6, 272.95 28.29 C286.58 36.99, 299.17 48.93, 309.3 61.04 C319.42 73.16, 328.53 87.19, 333.69 100.97 C338.84 114.74, 340.93 129.48, 340.24 143.71 C339.55 157.94, 335.41 172.64, 329.56 186.37 C323.7 200.09, 315.63 214.52, 305.1 226.08 C294.56 237.63, 280.71 247.65, 266.33 255.69 C251.94 263.73, 235.68 270.12, 218.79 274.32 C201.9 278.51, 182.74 281.18, 164.99 280.87 C147.23 280.56, 128.83 277.32, 112.23 272.44 C95.63 267.57, 78.99 260.59, 65.4 251.59 C51.81 242.6, 40.52 230.43, 30.72 218.47 C20.92 206.51, 11.79 193.42, 6.6 179.85 C1.41 166.28, -0.88 151.56, -0.43 137.03 C0.03 122.51, 3.44 106.42, 9.34 92.7 C15.25 78.98, 24.16 66.01, 35.02 54.7 C45.87 43.4, 59.82 33.17, 74.46 24.87 C89.09 16.56, 105.4 9.13, 122.83 4.87 C140.26 0.6, 168.91 -0.58, 179.02 -0.72 C189.13 -0.86, 183.7 1.51, 183.48 4.02 M222.94 8.32 C239.34 10.95, 256.88 19.85, 271.41 28.33 C285.93 36.82, 299.99 47.66, 310.09 59.22 C320.19 70.79, 327.04 84.2, 332.03 97.73 C337.02 111.26, 340 125.71, 340.02 140.41 C340.05 155.1, 337.72 172.01, 332.18 185.93 C326.65 199.85, 317.4 212.36, 306.82 223.92 C296.24 235.49, 282.91 246.78, 268.72 255.31 C254.53 263.84, 238.38 270.89, 221.69 275.1 C205.01 279.32, 186.27 281.12, 168.58 280.6 C150.9 280.09, 132.17 276.88, 115.6 272.02 C99.03 267.16, 83.22 260.08, 69.16 251.46 C55.09 242.83, 41.38 232.05, 31.21 220.27 C21.04 208.48, 13.3 194.25, 8.12 180.76 C2.93 167.27, -0.27 153.46, 0.11 139.34 C0.5 125.23, 4.61 109.85, 10.42 96.06 C16.24 82.27, 24.74 68.47, 35 56.6 C45.25 44.72, 57.68 33.28, 71.94 24.79 C86.21 16.3, 103.72 9.62, 120.58 5.68 C137.45 1.74, 156.06 0.9, 173.14 1.14 C190.21 1.37, 214.63 5.66, 223.03 7.09 C231.42 8.53, 223.97 7.42, 223.5 9.73" stroke="#ffd8a8" stroke-width="2" fill="none"></path></g><g transform="translate(878.4085120847617 127.50505063388334) rotate(0 61.38333511352539 22.5)"><text x="61.38333511352539" y="31.536" font-family="Virgil, Segoe UI Emoji" font-size="36px" fill="#1e1e1e" text-anchor="middle" style="white-space: pre;" direction="ltr" dominant-baseline="alphabetic">Browse</text></g><g stroke-linecap="round" transform="translate(770 1230) rotate(0 170 140)"><path d="M140.64 2.48 C156.68 -2.32, 176.88 -0.89, 194.26 0.93 C211.64 2.74, 229.18 7.13, 244.92 13.37 C260.65 19.62, 276.1 28.31, 288.66 38.37 C301.22 48.44, 312.23 60.96, 320.27 73.76 C328.31 86.57, 333.85 100.86, 336.9 115.19 C339.96 129.51, 340.8 145.5, 338.61 159.72 C336.41 173.94, 331.31 187.71, 323.73 200.52 C316.15 213.33, 305.54 226.1, 293.11 236.56 C280.69 247.03, 264.73 256.34, 249.2 263.3 C233.67 270.26, 217.2 275.89, 199.93 278.3 C182.65 280.71, 162.81 279.82, 145.56 277.77 C128.32 275.72, 112.09 272.01, 96.44 265.98 C80.78 259.94, 64.25 251.44, 51.64 241.54 C39.02 231.64, 28.91 219.38, 20.75 206.59 C12.6 193.81, 5.89 179.18, 2.69 164.82 C-0.52 150.45, -0.96 134.88, 1.53 120.39 C4.03 105.9, 9.93 90.76, 17.67 77.88 C25.4 64.99, 35.71 53.24, 47.93 43.08 C60.15 32.92, 74.91 23.8, 91 16.92 C107.09 10.03, 134.61 4.09, 144.44 1.78 C154.27 -0.54, 149.57 0.82, 149.99 3.03 M88.75 15.04 C101.78 6.61, 121.52 4.06, 138.84 1.73 C156.15 -0.61, 175.14 -1.18, 192.62 1.01 C210.1 3.2, 227.85 8.59, 243.72 14.87 C259.6 21.15, 275.02 28.88, 287.85 38.68 C300.68 48.49, 312.46 61.13, 320.7 73.69 C328.95 86.26, 334.3 99.75, 337.32 114.07 C340.34 128.39, 341.29 145.29, 338.8 159.59 C336.31 173.88, 329.87 187.1, 322.4 199.82 C314.93 212.54, 306.25 225.09, 293.96 235.92 C281.67 246.76, 264.13 257.99, 248.68 264.83 C233.22 271.67, 218.46 274.56, 201.23 276.97 C184.01 279.37, 162.93 281.15, 145.32 279.28 C127.72 277.41, 110.97 272.26, 95.58 265.74 C80.19 259.22, 65.62 250.39, 52.99 240.17 C40.37 229.96, 28.47 217.3, 19.84 204.46 C11.21 191.61, 4.17 177.14, 1.2 163.11 C-1.76 149.08, -0.59 134.44, 2.06 120.29 C4.7 106.14, 9.24 91.08, 17.05 78.22 C24.86 65.36, 36.84 53.22, 48.92 43.11 C61 33, 82.19 21.36, 89.53 17.57 C96.86 13.78, 91.42 18.53, 92.94 20.37" stroke="none" stroke-width="0" fill="#ffd8a8"></path><path d="M229.24 8.71 C246.01 11.39, 262.7 21.32, 276.31 30.29 C289.92 39.27, 301.42 50.58, 310.9 62.56 C320.39 74.54, 328.21 88.19, 333.2 102.19 C338.19 116.18, 341.66 132.18, 340.84 146.54 C340.03 160.9, 334.58 174.87, 328.33 188.33 C322.07 201.8, 314.08 215.88, 303.32 227.33 C292.55 238.78, 278.33 249.2, 263.74 257.03 C249.15 264.87, 232.61 270.5, 215.76 274.34 C198.91 278.18, 180.18 280.72, 162.63 280.09 C145.07 279.45, 126.73 275.6, 110.42 270.53 C94.12 265.46, 78.42 258.35, 64.78 249.67 C51.15 240.98, 38.27 230.57, 28.61 218.41 C18.96 206.25, 11.56 190.69, 6.85 176.7 C2.14 162.71, -0.32 148.66, 0.36 134.46 C1.05 120.26, 4.76 105.18, 10.94 91.5 C17.12 77.81, 26.75 63.57, 37.45 52.35 C48.15 41.13, 60.7 31.96, 75.17 24.19 C89.63 16.42, 107.22 9.89, 124.24 5.72 C141.26 1.55, 158.78 -1.73, 177.29 -0.84 C195.81 0.06, 225.22 8.49, 235.33 11.08 C245.44 13.67, 239.26 12.51, 237.96 14.7 M100.3 12.74 C114.55 4.85, 134.08 1.67, 151.27 0.23 C168.47 -1.22, 186.31 1.21, 203.49 4.06 C220.68 6.9, 238.97 10.55, 254.38 17.3 C269.79 24.04, 284.23 33.86, 295.96 44.54 C307.69 55.22, 317.73 67.88, 324.74 81.37 C331.76 94.85, 335.89 110.97, 338.05 125.45 C340.22 139.92, 341.21 154.27, 337.74 168.21 C334.26 182.15, 325.86 196.42, 317.21 209.09 C308.56 221.77, 298.6 234.3, 285.86 244.25 C273.13 254.21, 257.12 262.78, 240.8 268.84 C224.49 274.89, 205.66 279.4, 187.96 280.59 C170.25 281.78, 151.54 278.97, 134.57 275.95 C117.6 272.93, 101.09 269.53, 86.13 262.48 C71.17 255.43, 56.6 244.22, 44.8 233.65 C32.99 223.08, 22.69 212, 15.32 199.06 C7.95 186.11, 2.35 170.26, 0.58 155.97 C-1.18 141.68, 1.01 127.3, 4.75 113.32 C8.49 99.34, 14.8 84.77, 23.02 72.1 C31.25 59.43, 41.4 47.1, 54.12 37.3 C66.84 27.51, 91.45 17.01, 99.34 13.33 C107.24 9.65, 100.03 13.34, 101.49 15.23" stroke="#ffd8a8" stroke-width="2" fill="none"></path></g><g transform="translate(897.6668471982871 1347.505050633883) rotate(0 42.125 22.5)"><text x="42.125" y="31.536" font-family="Virgil, Segoe UI Emoji" font-size="36px" fill="#1e1e1e" text-anchor="middle" style="white-space: pre;" direction="ltr" dominant-baseline="alphabetic">Login</text></g><g stroke-linecap="round" transform="translate(1430 790) rotate(0 170 140)"><path d="M252.19 18.03 C268.12 22.64, 280.93 32.62, 292.89 42.92 C304.84 53.21, 316.35 66.54, 323.94 79.81 C331.54 93.08, 336.33 108.21, 338.45 122.51 C340.57 136.8, 340.01 151.66, 336.66 165.57 C333.31 179.49, 326.78 193.28, 318.32 206.01 C309.87 218.74, 298.53 231.9, 285.92 241.97 C273.32 252.03, 258.42 260.12, 242.7 266.41 C226.97 272.71, 208.87 277.93, 191.57 279.75 C174.28 281.57, 155.97 279.98, 138.95 277.33 C121.92 274.68, 104.65 270.64, 89.41 263.86 C74.16 257.09, 59.66 247.35, 47.48 236.68 C35.29 226.02, 23.97 213.1, 16.31 199.88 C8.66 186.65, 3.89 171.54, 1.54 157.33 C-0.81 143.13, -1.01 128.86, 2.19 114.65 C5.4 100.43, 12.39 84.78, 20.76 72.04 C29.14 59.29, 39.66 48, 52.46 38.17 C65.26 28.34, 81.48 19.09, 97.57 13.06 C113.66 7.04, 131.78 3.76, 149.02 2.04 C166.25 0.32, 183.57 -0.02, 200.99 2.76 C218.4 5.53, 244.55 15.45, 253.49 18.7 C262.42 21.94, 255.84 20.18, 254.58 22.25 M97.53 14.22 C111.76 6.4, 131.9 2.64, 149.03 0.49 C166.15 -1.65, 183.35 -1.27, 200.27 1.34 C217.19 3.95, 235 8.92, 250.56 16.15 C266.12 23.39, 281.56 34.05, 293.64 44.73 C305.72 55.41, 315.49 67.39, 323.05 80.23 C330.62 93.08, 336.93 107.72, 339.03 121.8 C341.13 135.88, 338.92 150.49, 335.65 164.7 C332.39 178.9, 327.5 193.98, 319.43 207.05 C311.36 220.12, 300.22 233.12, 287.22 243.11 C274.23 253.09, 257.37 261.19, 241.46 266.95 C225.56 272.71, 209.19 276, 191.79 277.66 C174.38 279.31, 154.39 279.53, 137.03 276.87 C119.68 274.22, 102.56 268.35, 87.67 261.74 C72.79 255.14, 59.63 247.55, 47.71 237.24 C35.79 226.92, 23.77 212.95, 16.15 199.84 C8.54 186.74, 4.38 173.15, 2 158.62 C-0.38 144.1, -1.34 127.11, 1.89 112.7 C5.12 98.3, 12.88 84.55, 21.38 72.2 C29.88 59.85, 40.24 48.36, 52.89 38.63 C65.54 28.9, 89.68 17.55, 97.28 13.83 C104.89 10.11, 97.31 14.48, 98.51 16.31" stroke="none" stroke-width="0" fill="#ffd8a8"></path><path d="M234.61 9.46 C251.11 12.34, 267.14 22.46, 280.27 31.86 C293.39 41.25, 304.18 53.42, 313.37 65.83 C322.56 78.23, 331.14 92.31, 335.42 106.31 C339.7 120.32, 340.21 135.53, 339.04 149.84 C337.86 164.14, 334.82 178.62, 328.38 192.13 C321.94 205.63, 311.64 219.66, 300.41 230.86 C289.18 242.06, 275.75 251.96, 261 259.33 C246.25 266.69, 228.98 271.71, 211.9 275.06 C194.82 278.42, 176.06 280.27, 158.55 279.44 C141.04 278.61, 123.12 275.29, 106.83 270.08 C90.54 264.87, 74.38 257.41, 60.81 248.18 C47.24 238.96, 34.84 227.17, 25.41 214.72 C15.98 202.28, 8.4 187.44, 4.23 173.51 C0.07 159.58, -0.98 145.4, 0.43 131.13 C1.84 116.86, 6.03 101.46, 12.72 87.87 C19.4 74.28, 29.26 60.81, 40.55 49.59 C51.85 38.36, 65.64 28.24, 80.47 20.54 C95.31 12.83, 112.64 6.77, 129.58 3.34 C146.52 -0.09, 163.48 -1.62, 182.12 -0.04 C200.77 1.53, 230.38 9.57, 241.46 12.79 C252.55 16.02, 249.61 17.26, 248.63 19.31 M228.41 8.99 C245.21 11.59, 262.27 19.53, 275.87 28.6 C289.46 37.66, 300.34 51.25, 309.98 63.38 C319.62 75.5, 328.55 87.48, 333.72 101.35 C338.89 115.22, 341.49 132.07, 340.97 146.6 C340.46 161.13, 336.78 175.2, 330.63 188.51 C324.48 201.82, 315.19 215.04, 304.1 226.48 C293.01 237.93, 278.98 249.05, 264.11 257.18 C249.24 265.3, 231.62 271.2, 214.9 275.23 C198.17 279.26, 180.9 282.08, 163.74 281.34 C146.57 280.6, 128.35 275.96, 111.92 270.78 C95.49 265.61, 79.23 259.21, 65.16 250.29 C51.09 241.38, 37.4 229.59, 27.52 217.31 C17.63 205.03, 10.29 190.43, 5.86 176.59 C1.44 162.74, 0.42 148.64, 0.99 134.24 C1.55 119.83, 3.59 103.7, 9.27 90.15 C14.94 76.6, 24.15 64.08, 35.06 52.94 C45.96 41.8, 60.01 31.12, 74.71 23.31 C89.4 15.49, 106.24 10.01, 123.21 6.07 C140.19 2.12, 158.83 -0.72, 176.54 -0.36 C194.26 0, 220.99 6.53, 229.49 8.23 C237.99 9.94, 228.57 7.54, 227.54 9.85" stroke="#ffd8a8" stroke-width="2" fill="none"></path></g><g transform="translate(1527.0168456724082 907.5050506338832) rotate(0 72.7750015258789 22.5)"><text x="72.7750015258789" y="31.536" font-family="Virgil, Segoe UI Emoji" font-size="36px" fill="#1e1e1e" text-anchor="middle" style="white-space: pre;" direction="ltr" dominant-baseline="alphabetic">Comment</text></g><g stroke-linecap="round" transform="translate(1450 1710) rotate(0 170 140)"><path d="M109.44 10.29 C124.11 3.24, 142.98 1.32, 160.44 0.39 C177.91 -0.54, 197.46 0.96, 214.25 4.7 C231.04 8.44, 246.54 15.16, 261.17 22.83 C275.81 30.5, 290.76 39.68, 302.08 50.7 C313.4 61.73, 322.89 75.34, 329.09 88.96 C335.29 102.58, 338.27 118.14, 339.29 132.44 C340.31 146.74, 339.72 160.84, 335.23 174.77 C330.73 188.7, 322.01 203.6, 312.32 216.01 C302.62 228.43, 290.43 240.22, 277.08 249.26 C263.73 258.31, 248.3 265.16, 232.21 270.28 C216.11 275.41, 198.25 279.06, 180.5 280.02 C162.76 280.98, 142.75 279.91, 125.73 276.05 C108.71 272.19, 92.93 264.69, 78.39 256.86 C63.85 249.02, 49.66 239.96, 38.49 229.04 C27.33 218.13, 17.7 204.92, 11.39 191.36 C5.08 177.79, 1.52 162.09, 0.64 147.64 C-0.25 133.19, 1.68 118.45, 6.07 104.68 C10.45 90.91, 17.57 77.34, 26.94 65.02 C36.3 52.7, 47.25 40.29, 62.26 30.77 C77.26 21.24, 106.08 11.65, 116.96 7.85 C127.84 4.06, 126.78 6.06, 127.56 8 M218.07 5.8 C234.47 7.47, 251.42 15.63, 266.03 23.8 C280.64 31.97, 295.19 43.11, 305.74 54.83 C316.28 66.55, 323.52 80.29, 329.29 94.11 C335.06 107.93, 339.62 123.59, 340.38 137.75 C341.15 151.92, 338.99 165.64, 333.88 179.1 C328.76 192.55, 319.83 206.56, 309.71 218.49 C299.6 230.41, 286.88 241.81, 273.19 250.64 C259.5 259.47, 244.09 266.53, 227.56 271.46 C211.03 276.39, 191.6 279.76, 174.01 280.22 C156.42 280.68, 138.66 278.13, 122.04 274.22 C105.41 270.32, 88.98 264.89, 74.28 256.79 C59.57 248.7, 44.52 237.34, 33.83 225.63 C23.14 213.93, 15.88 200.06, 10.14 186.56 C4.41 173.06, 0.15 159.12, -0.57 144.66 C-1.3 130.2, 0.54 113.63, 5.79 99.81 C11.04 85.99, 20.98 73.79, 30.95 61.73 C40.91 49.67, 52.01 36.34, 65.61 27.44 C79.21 18.54, 95.77 13.11, 112.55 8.34 C129.33 3.57, 148.65 -0.87, 166.28 -1.19 C183.91 -1.51, 209.69 4.96, 218.32 6.44 C226.94 7.92, 218.85 5.3, 218.05 7.67" stroke="none" stroke-width="0" fill="#ffd8a8"></path><path d="M94.43 15.1 C108.19 7.13, 129.82 2.9, 147.16 0.8 C164.51 -1.3, 181.45 -0.06, 198.52 2.51 C215.59 5.08, 233.88 9.59, 249.59 16.21 C265.3 22.82, 280.61 31.98, 292.78 42.2 C304.95 52.43, 315.18 64.67, 322.61 77.54 C330.04 90.42, 334.85 105.06, 337.37 119.45 C339.89 133.84, 340.61 149.6, 337.73 163.9 C334.86 178.19, 328.25 192.41, 320.15 205.22 C312.04 218.03, 301.75 230.55, 289.12 240.76 C276.5 250.98, 260.1 260.03, 244.37 266.5 C228.63 272.96, 211.94 277.69, 194.73 279.56 C177.51 281.44, 158.51 280.37, 141.08 277.74 C123.64 275.11, 105.76 270.64, 90.1 263.79 C74.43 256.94, 59.14 247.02, 47.06 236.65 C34.98 226.28, 25.34 214.5, 17.61 201.54 C9.88 188.59, 3.21 173.12, 0.68 158.93 C-1.86 144.73, -0.71 130.3, 2.4 116.37 C5.51 102.45, 10.95 88.24, 19.33 75.37 C27.71 62.51, 38.64 49.96, 52.66 39.17 C66.69 28.38, 93.49 15.37, 103.47 10.61 C113.45 5.86, 111.45 8.36, 112.52 10.65 M214.33 5.27 C231.44 7.12, 249.8 16.14, 264.46 23.84 C279.12 31.54, 291.68 40.48, 302.29 51.47 C312.89 62.47, 322 76.09, 328.08 89.79 C334.17 103.49, 337.71 119.21, 338.8 133.69 C339.89 148.16, 339.1 162.67, 334.63 176.65 C330.15 190.63, 321.79 205.66, 311.95 217.56 C302.11 229.47, 289.5 239.11, 275.58 248.08 C261.66 257.05, 244.79 265.99, 228.43 271.38 C212.07 276.78, 194.51 280.08, 177.43 280.47 C160.36 280.86, 142.76 277.64, 125.98 273.73 C109.19 269.81, 91.73 264.96, 76.71 256.98 C61.69 248.99, 46.96 237.25, 35.86 225.83 C24.77 214.41, 16.26 201.47, 10.13 188.45 C4 175.42, -0.44 161.98, -0.9 147.66 C-1.37 133.35, 2.5 116.59, 7.34 102.56 C12.18 88.53, 18.55 75.65, 28.13 63.47 C37.71 51.28, 51.37 38.47, 64.84 29.46 C78.31 20.45, 92.81 14.39, 108.97 9.42 C125.13 4.45, 144.02 0.38, 161.82 -0.36 C179.61 -1.09, 206.94 3.71, 215.76 5.02 C224.58 6.32, 215.53 5.25, 214.74 7.49" stroke="#ffd8a8" stroke-width="2" fill="none"></path></g><g transform="translate(1538.0835113218222 1827.505050633883) rotate(0 81.70833587646484 22.5)"><text x="81.70833587646484" y="31.536" font-family="Virgil, Segoe UI Emoji" font-size="36px" fill="#1e1e1e" text-anchor="middle" style="white-space: pre;" direction="ltr" dominant-baseline="alphabetic">Bookmark</text></g><g stroke-linecap="round" transform="translate(1450 1210) rotate(0 170 140)"><path d="M243.28 14.12 C259.43 17.99, 274.31 28.97, 287.01 38.81 C299.71 48.66, 311.01 60.78, 319.48 73.16 C327.95 85.54, 334.77 99, 337.81 113.09 C340.85 127.18, 340.04 143.39, 337.73 157.72 C335.42 172.04, 331.34 185.89, 323.97 199.04 C316.59 212.19, 305.55 225.91, 293.48 236.61 C281.41 247.3, 267.01 256.4, 251.54 263.23 C236.07 270.06, 217.85 274.83, 200.66 277.6 C183.48 280.36, 165.5 281.78, 148.41 279.82 C131.33 277.86, 114.1 272.02, 98.15 265.84 C82.21 259.67, 65.56 252.57, 52.76 242.75 C39.95 232.93, 29.61 219.87, 21.32 206.92 C13.02 193.98, 6.23 179.19, 2.98 165.08 C-0.27 150.97, -0.51 136.32, 1.81 122.24 C4.12 108.16, 9.6 93.73, 16.87 80.59 C24.14 67.44, 33.35 53.84, 45.41 43.36 C57.47 32.87, 73.77 24.49, 89.24 17.7 C104.7 10.9, 121.27 5.23, 138.2 2.61 C155.14 -0.02, 172.05 -0.34, 190.85 1.96 C209.65 4.27, 239.87 12.82, 251.03 16.41 C262.19 20, 259.04 21.2, 257.81 23.49 M114.64 8.28 C129.48 1.7, 149.37 -0.35, 167.21 -0.86 C185.04 -1.37, 204.8 0.9, 221.64 5.22 C238.49 9.53, 253.92 16.43, 268.28 25.04 C282.64 33.64, 297.58 45.25, 307.82 56.83 C318.06 68.42, 324.35 81.11, 329.7 94.55 C335.05 107.98, 339.33 122.65, 339.89 137.44 C340.45 152.24, 338.37 169.52, 333.06 183.32 C327.75 197.12, 318.6 208.67, 308.05 220.26 C297.5 231.84, 283.88 244.07, 269.75 252.84 C255.63 261.62, 239.49 268.44, 223.3 272.9 C207.11 277.35, 189.77 279.4, 172.63 279.57 C155.48 279.74, 137.1 278.05, 120.43 273.9 C103.75 269.75, 87.31 262.88, 72.59 254.69 C57.87 246.5, 42.62 236.61, 32.12 224.77 C21.62 212.93, 15.07 197.36, 9.58 183.65 C4.09 169.95, -0.47 156.69, -0.83 142.57 C-1.18 128.44, 1.87 112.64, 7.43 98.9 C12.98 85.15, 22.21 72.06, 32.51 60.11 C42.82 48.16, 55.38 36.11, 69.25 27.18 C83.13 18.24, 107.58 9.47, 115.78 6.5 C123.98 3.54, 117.59 7.2, 118.43 9.39" stroke="none" stroke-width="0" fill="#ffd8a8"></path><path d="M189.34 1.34 C206.17 0.75, 225.11 6.04, 241.04 12.11 C256.97 18.19, 271.96 27.95, 284.92 37.8 C297.88 47.65, 310.14 58.69, 318.79 71.2 C327.45 83.72, 333.62 98.63, 336.85 112.91 C340.07 127.19, 340.28 142.84, 338.14 156.89 C336.01 170.94, 331.32 184.07, 324.02 197.2 C316.71 210.32, 305.91 224.76, 294.32 235.64 C282.74 246.53, 269.64 255.42, 254.52 262.5 C239.39 269.58, 220.86 275.29, 203.59 278.13 C186.32 280.96, 168.18 281.25, 150.89 279.51 C133.6 277.77, 115.88 273.59, 99.86 267.68 C83.84 261.77, 67.67 253.74, 54.76 244.05 C41.85 234.35, 31.03 222.09, 22.37 209.52 C13.72 196.94, 6.31 182.8, 2.82 168.59 C-0.67 154.38, -0.73 138.71, 1.45 124.28 C3.62 109.86, 8.75 95.32, 15.88 82.03 C23 68.74, 32.46 55.27, 44.2 44.54 C55.94 33.81, 70.94 24.53, 86.32 17.67 C101.7 10.8, 118.63 5.95, 136.48 3.36 C154.33 0.78, 183.23 2.05, 193.41 2.15 C203.59 2.25, 197.7 1.8, 197.55 3.97 M173.02 0.08 C189.26 -1.68, 206.71 3.1, 223.34 7.67 C239.96 12.23, 258.37 18.95, 272.76 27.49 C287.16 36.02, 299.86 47.1, 309.69 58.87 C319.52 70.64, 326.85 84.49, 331.76 98.13 C336.68 111.77, 339.08 126.26, 339.17 140.71 C339.25 155.17, 337.52 170.84, 332.26 184.87 C327 198.91, 318.43 213.25, 307.59 224.95 C296.75 236.65, 281.75 246.83, 267.21 255.07 C252.68 263.31, 236.82 270.46, 220.38 274.4 C203.95 278.34, 185.99 279.21, 168.61 278.72 C151.24 278.22, 132.6 275.89, 116.14 271.45 C99.68 267, 83.92 260.5, 69.83 252.06 C55.75 243.61, 42.02 232.5, 31.62 220.8 C21.23 209.09, 12.75 195.51, 7.47 181.85 C2.19 168.19, -0.21 153.35, -0.07 138.84 C0.08 124.33, 2.72 108.51, 8.36 94.81 C13.99 81.11, 22.92 68.11, 33.72 56.61 C44.53 45.12, 58.94 34.23, 73.17 25.83 C87.41 17.44, 102.64 10.41, 119.13 6.24 C135.63 2.07, 163.21 1.39, 172.14 0.83 C181.08 0.28, 172.93 0.63, 172.73 2.9" stroke="#ffd8a8" stroke-width="2" fill="none"></path></g><g transform="translate(1575.4918479612265 1327.5050506338835) rotate(0 44.29999923706055 22.5)"><text x="44.29999923706055" y="31.536" font-family="Virgil, Segoe UI Emoji" font-size="36px" fill="#1e1e1e" text-anchor="middle" style="white-space: pre;" direction="ltr" dominant-baseline="alphabetic">Read</text></g><g stroke-linecap="round"><g transform="translate(1191.7160153166205 430.65534858666365) rotate(0 248.49557678539782 0)"><path d="M-0.17 0.26 C82.72 0.29, 414.14 -0.66, 496.99 -0.56 M-1.72 -0.66 C81.05 -0.4, 413.06 0.75, 496.04 0.68" stroke="#1e1e1e" stroke-width="4" fill="none"></path></g></g><mask></mask><g stroke-linecap="round"><g transform="translate(1190.8071557004005 630.9696464568726) rotate(0 248.49557678539782 0)"><path d="M-0.81 -0.61 C82 -0.65, 413.04 -1.12, 495.85 -0.92 M0.97 1.68 C84.21 1.83, 415.05 0.66, 497.96 0.13" stroke="#1e1e1e" stroke-width="4" fill="none"></path></g></g><mask></mask><g transform="translate(1290 510) rotate(0 138.81666564941406 22.5)"><text x="0" y="31.536" font-family="Virgil, Segoe UI Emoji" font-size="36px" fill="#1e1e1e" text-anchor="start" style="white-space: pre;" direction="ltr" dominant-baseline="alphabetic">Story Comments</text></g><g stroke-linecap="round"><g transform="translate(470 550) rotate(0 160 -110)"><path d="M-0.92 -1.06 C52.73 -38.04, 267.28 -184.52, 320.8 -220.91 M0.8 0.99 C54.45 -35.94, 267.16 -182.79, 320.27 -219.86" stroke="#1e1e1e" stroke-width="4" fill="none"></path></g><g transform="translate(470 550) rotate(0 160 -110)"><path d="M305.84 -199.44 C306.98 -202.34, 310.3 -207.74, 320.27 -219.86 M305.84 -199.44 C311.88 -207.42, 315.24 -213.48, 320.27 -219.86" stroke="#1e1e1e" stroke-width="4" fill="none"></path></g><g transform="translate(470 550) rotate(0 160 -110)"><path d="M296.09 -213.5 C299.41 -213.33, 304.8 -215.74, 320.27 -219.86 M296.09 -213.5 C305.53 -216.48, 312.3 -217.63, 320.27 -219.86" stroke="#1e1e1e" stroke-width="4" fill="none"></path></g></g><mask></mask><g stroke-linecap="round"><g transform="translate(450 950) rotate(0 170 140)"><path d="M-0.68 0.61 C56.25 47.47, 284.28 233.63, 340.91 280.36 M1.17 -0.12 C58.07 46.45, 283.72 231.88, 340.43 278.42" stroke="#1e1e1e" stroke-width="4" fill="none"></path></g><g transform="translate(450 950) rotate(0 170 140)"><path d="M316.85 270.12 C323.6 273.8, 328.98 272.76, 340.43 278.42 M316.85 270.12 C326.43 272.75, 334.48 275.44, 340.43 278.42" stroke="#1e1e1e" stroke-width="4" fill="none"></path></g><g transform="translate(450 950) rotate(0 170 140)"><path d="M327.71 256.9 C331.69 263.78, 334.41 265.99, 340.43 278.42 M327.71 256.9 C333.16 264.58, 337.1 272.27, 340.43 278.42" stroke="#1e1e1e" stroke-width="4" fill="none"></path></g></g><mask></mask><g stroke-linecap="round"><g transform="translate(1891.7078817882389 250.90675588225417) rotate(0 248.49557678539782 0)"><path d="M0.16 0.82 C83.02 1.07, 413.34 1, 496.19 0.8 M-1.22 0.21 C82.11 0.18, 415.51 -1, 498.48 -0.9" stroke="#1e1e1e" stroke-width="4" fill="none"></path></g></g><mask></mask><g stroke-linecap="round"><g transform="translate(1890.7990221720188 451.22105375246315) rotate(0 248.49557678539782 0)"><path d="M-0.8 0.8 C82.05 0.6, 414.45 -0.3, 497.25 -0.36 M0.98 0.18 C83.68 0.08, 413.54 1.29, 496.43 0.99" stroke="#1e1e1e" stroke-width="4" fill="none"></path></g></g><mask></mask><g transform="translate(2010 329.9999999999998) rotate(0 120.78333282470703 22.5)"><text x="0" y="31.536" font-family="Virgil, Segoe UI Emoji" font-size="36px" fill="#1e1e1e" text-anchor="start" style="white-space: pre;" direction="ltr" dominant-baseline="alphabetic">Story Details</text></g><g stroke-linecap="round"><g transform="translate(1150 230) rotate(0 120 80)"><path d="M0.96 -0.8 C41.01 26.01, 200.44 134.02, 240.25 160.83 M0.01 1.39 C39.92 27.88, 199.6 132.48, 239.44 159.14" stroke="#1e1e1e" stroke-width="4" fill="none"></path></g><g transform="translate(1150 230) rotate(0 120 80)"><path d="M215.12 153.31 C221.09 155.28, 231.09 156.38, 239.44 159.14 M215.12 153.31 C223.39 154.98, 229.44 157.33, 239.44 159.14" stroke="#1e1e1e" stroke-width="4" fill="none"></path></g><g transform="translate(1150 230) rotate(0 120 80)"><path d="M224.56 139.05 C227.68 145.38, 234.86 150.75, 239.44 159.14 M224.56 139.05 C229.85 144.99, 233.05 151.64, 239.44 159.14" stroke="#1e1e1e" stroke-width="4" fill="none"></path></g></g><mask></mask><g stroke-linecap="round"><g transform="translate(1170.6131681860238 150.22475721649823) rotate(0 319.6934159069881 79.88762139175088)"><path d="M0.55 0.8 C107.27 27.2, 533.59 132.95, 640.25 159.55 M-0.61 0.18 C106.03 27.27, 532.93 134.6, 639.76 160.97" stroke="#1e1e1e" stroke-width="4" fill="none"></path></g><g transform="translate(1170.6131681860238 150.22475721649823) rotate(0 319.6934159069881 79.88762139175088)"><path d="M614.89 163.58 C623.56 164.13, 629.21 163.83, 639.76 160.97 M614.89 163.58 C624.59 161.88, 631.79 162.11, 639.76 160.97" stroke="#1e1e1e" stroke-width="4" fill="none"></path></g><g transform="translate(1170.6131681860238 150.22475721649823) rotate(0 319.6934159069881 79.88762139175088)"><path d="M619.03 146.99 C626.64 152.47, 631.06 157.07, 639.76 160.97 M619.03 146.99 C627.11 151.18, 632.85 157.28, 639.76 160.97" stroke="#1e1e1e" stroke-width="4" fill="none"></path></g></g><mask></mask><g stroke-linecap="round"><g transform="translate(1510 770) rotate(0 -30 -50)"><path d="M-0.5 -0.45 C-10.38 -17.24, -49.55 -83.54, -59.29 -100.06 M1.44 -1.73 C-8.54 -18.39, -49.77 -81.9, -59.87 -98.55" stroke="#1e1e1e" stroke-width="4" fill="none"></path></g><g transform="translate(1510 770) rotate(0 -30 -50)"><path d="M-40.12 -83.23 C-46.91 -86.76, -52.22 -90.81, -59.87 -98.55 M-40.12 -83.23 C-47.75 -89, -53.78 -93.28, -59.87 -98.55" stroke="#1e1e1e" stroke-width="4" fill="none"></path></g><g transform="translate(1510 770) rotate(0 -30 -50)"><path d="M-54.59 -74.12 C-57.07 -80.33, -58.01 -87.14, -59.87 -98.55 M-54.59 -74.12 C-57.35 -82.88, -58.49 -90.23, -59.87 -98.55" stroke="#1e1e1e" stroke-width="4" fill="none"></path></g></g><mask></mask><g stroke-linecap="round"><g transform="translate(1110 1250) rotate(0 140 -130)"><path d="M0.84 -1 C47.5 -44.39, 232.42 -217.88, 278.94 -261.02 M-0.18 1.09 C46.93 -42.12, 234.54 -216.77, 281.1 -260.01" stroke="#1e1e1e" stroke-width="4" fill="none"></path></g><g transform="translate(1110 1250) rotate(0 140 -130)"><path d="M269.72 -237.76 C270.64 -244.42, 273.08 -247.56, 281.1 -260.01 M269.72 -237.76 C273.94 -245.86, 277.78 -251.21, 281.1 -260.01" stroke="#1e1e1e" stroke-width="4" fill="none"></path></g><g transform="translate(1110 1250) rotate(0 140 -130)"><path d="M258.07 -250.28 C261.44 -254.31, 266.4 -254.74, 281.1 -260.01 M258.07 -250.28 C265.95 -254.5, 273.47 -255.89, 281.1 -260.01" stroke="#1e1e1e" stroke-width="4" fill="none"></path></g></g><mask></mask><g stroke-linecap="round"><g transform="translate(1150 1410) rotate(0 130 -20)"><path d="M-0.42 1.12 C42.78 -5.52, 216.52 -33.26, 260.03 -40.03 M1.56 0.66 C44.54 -5.76, 215.99 -31.47, 259.1 -38.51" stroke="#1e1e1e" stroke-width="4" fill="none"></path></g><g transform="translate(1150 1410) rotate(0 130 -20)"><path d="M237.2 -26.44 C247.15 -30.75, 253.29 -34.17, 259.1 -38.51 M237.2 -26.44 C244.1 -30.86, 251.95 -34.94, 259.1 -38.51" stroke="#1e1e1e" stroke-width="4" fill="none"></path></g><g transform="translate(1150 1410) rotate(0 130 -20)"><path d="M234.58 -43.34 C245.46 -41.42, 252.57 -38.62, 259.1 -38.51 M234.58 -43.34 C242.5 -41.99, 251.25 -40.28, 259.1 -38.51" stroke="#1e1e1e" stroke-width="4" fill="none"></path></g></g><mask></mask><g stroke-linecap="round"><g transform="translate(1109.6531733151337 1511.1695022184404) rotate(0 160 120)"><path d="M1.18 -1.17 C54.53 38.63, 266.65 199.6, 319.76 239.99 M0.35 0.83 C53.55 41.35, 265.58 201.75, 318.68 241.52" stroke="#1e1e1e" stroke-width="4" fill="none"></path></g><g transform="translate(1109.6531733151337 1511.1695022184404) rotate(0 160 120)"><path d="M294.77 234.21 C299.39 235.56, 307.81 237.64, 318.68 241.52 M294.77 234.21 C305.23 236.61, 314.42 240.25, 318.68 241.52" stroke="#1e1e1e" stroke-width="4" fill="none"></path></g><g transform="translate(1109.6531733151337 1511.1695022184404) rotate(0 160 120)"><path d="M305.06 220.55 C307.02 225.71, 312.64 231.5, 318.68 241.52 M305.06 220.55 C311.53 228.41, 316.64 237.48, 318.68 241.52" stroke="#1e1e1e" stroke-width="4" fill="none"></path></g></g><mask></mask><g stroke-linecap="round"><g transform="translate(2292.2704030528816 1749.845055838302) rotate(0 247.37403852777993 0)"><path d="M0.08 1.14 C82.53 1.1, 412.21 0.23, 494.81 0.15 M-1.33 0.69 C80.95 0.83, 411.11 2.1, 493.89 1.77" stroke="#1e1e1e" stroke-width="4" fill="none"></path></g></g><mask></mask><g stroke-linecap="round"><g transform="translate(2291.365645404365 1949.2552726318354) rotate(0 247.37403852777993 0)"><path d="M0.06 0.15 C82.66 0.08, 413.4 0.91, 495.66 0.72 M-1.37 -0.81 C81.14 -0.71, 412.32 -1.12, 495.19 -1.03" stroke="#1e1e1e" stroke-width="4" fill="none"></path></g></g><mask></mask><g transform="translate(2410.028631938058 1828.5813274081065) rotate(0 140.06497385662215 22.398450462890196)"><text x="0" y="31.393668168786846" font-family="Virgil, Segoe UI Emoji" font-size="35.83752074062425px" fill="#1e1e1e" text-anchor="start" style="white-space: pre;" direction="ltr" dominant-baseline="alphabetic">User Bookmarks</text></g><g stroke-linecap="round"><g transform="translate(2291.4671730469727 1251.2913546017212) rotate(0 248.49557678539782 0)"><path d="M-0.01 0.09 C83.04 0.11, 415.1 0.71, 498.12 0.65 M-1.47 -0.91 C81.54 -1.28, 414.54 -1.43, 497.76 -1.13" stroke="#1e1e1e" stroke-width="4" fill="none"></path></g></g><mask></mask><g stroke-linecap="round"><g transform="translate(2290.5583134307526 1451.6056524719306) rotate(0 248.49557678539782 0)"><path d="M1.13 0.65 C84.14 0.59, 415.24 -0.28, 498.08 -0.27 M0.26 -0.05 C83.21 0.06, 414.74 1.33, 497.7 1.13" stroke="#1e1e1e" stroke-width="4" fill="none"></path></g></g><mask></mask><g transform="translate(2409.7592912587334 1330.3845987194672) rotate(0 118.93333435058594 22.5)"><text x="0" y="31.536" font-family="Virgil, Segoe UI Emoji" font-size="36px" fill="#1e1e1e" text-anchor="start" style="white-space: pre;" direction="ltr" dominant-baseline="alphabetic">Story Session</text></g><g stroke-linecap="round"><g transform="translate(1852.4213815083917 1311.3403518422692) rotate(0 179.58552258711302 0)"><path d="M0.41 0.88 C60.15 0.81, 299.71 0.83, 359.33 0.51 M-0.83 0.3 C58.68 -0.21, 298.24 -1.25, 358.47 -1.34" stroke="#1e1e1e" stroke-width="4" fill="none"></path></g><g transform="translate(1852.4213815083917 1311.3403518422692) rotate(0 179.58552258711302 0)"><path d="M335 7.29 C345.28 4.21, 353.54 -1, 358.47 -1.34 M335 7.29 C339.23 5.41, 346.01 2.81, 358.47 -1.34" stroke="#1e1e1e" stroke-width="4" fill="none"></path></g><g transform="translate(1852.4213815083917 1311.3403518422692) rotate(0 179.58552258711302 0)"><path d="M334.95 -9.82 C345.38 -6.42, 353.66 -5.17, 358.47 -1.34 M334.95 -9.82 C339.02 -8.01, 345.81 -6.94, 358.47 -1.34" stroke="#1e1e1e" stroke-width="4" fill="none"></path></g></g><mask></mask><g stroke-linecap="round"><g transform="translate(2211.5924266826178 1390) rotate(0 -180 0)"><path d="M-0.46 -0.65 C-60.62 -0.54, -300.62 0.7, -360.42 0.93 M1.5 1.63 C-58.9 1.39, -301.4 -0.22, -361.59 -0.71" stroke="#1e1e1e" stroke-width="4" fill="none"></path></g><g transform="translate(2211.5924266826178 1390) rotate(0 -180 0)"><path d="M-338.04 -9.09 C-347.2 -7, -352.68 -2.18, -361.59 -0.71 M-338.04 -9.09 C-346.1 -5.08, -355.09 -3.55, -361.59 -0.71" stroke="#1e1e1e" stroke-width="4" fill="none"></path></g><g transform="translate(2211.5924266826178 1390) rotate(0 -180 0)"><path d="M-338.16 8.01 C-347.32 4.22, -352.75 3.16, -361.59 -0.71 M-338.16 8.01 C-346.22 5.89, -355.17 1.3, -361.59 -0.71" stroke="#1e1e1e" stroke-width="4" fill="none"></path></g></g><mask></mask><g transform="translate(1910 1410) rotate(0 126.2750015258789 22.5)"><text x="126.2750015258789" y="31.536" font-family="Virgil, Segoe UI Emoji" font-size="36px" fill="#1e1e1e" text-anchor="middle" style="white-space: pre;" direction="ltr" dominant-baseline="alphabetic">Receive State</text></g><g transform="translate(1870 1250) rotate(0 167.35833740234375 22.5)"><text x="167.35833740234375" y="31.536" font-family="Virgil, Segoe UI Emoji" font-size="36px" fill="#1e1e1e" text-anchor="middle" style="white-space: pre;" direction="ltr" dominant-baseline="alphabetic">Submit User Action</text></g><g stroke-linecap="round"><g transform="translate(2230.4767108156348 1890.8877814967373) rotate(0 -180 0)"><path d="M0.87 -0.86 C-58.92 -0.77, -299.72 0.69, -359.69 0.81 M-0.13 1.3 C-59.97 1.04, -300.64 -0.85, -360.48 -0.89" stroke="#1e1e1e" stroke-width="4" fill="none"></path></g><g transform="translate(2230.4767108156348 1890.8877814967373) rotate(0 -180 0)"><path d="M-336.94 -9.33 C-343.6 -6.77, -346.04 -3.65, -360.48 -0.89 M-336.94 -9.33 C-343.13 -7.72, -350.9 -5.64, -360.48 -0.89" stroke="#1e1e1e" stroke-width="4" fill="none"></path></g><g transform="translate(2230.4767108156348 1890.8877814967373) rotate(0 -180 0)"><path d="M-337.03 7.77 C-343.69 6.53, -346.11 5.85, -360.48 -0.89 M-337.03 7.77 C-343.19 4.48, -350.93 1.65, -360.48 -0.89" stroke="#1e1e1e" stroke-width="4" fill="none"></path></g></g><mask></mask><g stroke-linecap="round"><g transform="translate(1870.889116068557 1830.540721581504) rotate(0 179.58552258711302 0)"><path d="M-0.89 0.68 C58.87 0.59, 298.59 -0.23, 358.4 -0.54 M0.84 -0.01 C61 0.06, 300.81 0.79, 360.71 0.71" stroke="#1e1e1e" stroke-width="4" fill="none"></path></g><g transform="translate(1870.889116068557 1830.540721581504) rotate(0 179.58552258711302 0)"><path d="M337.21 9.24 C345.08 5.69, 349.8 2.57, 360.71 0.71 M337.21 9.24 C342.33 7.71, 346.18 5.42, 360.71 0.71" stroke="#1e1e1e" stroke-width="4" fill="none"></path></g><g transform="translate(1870.889116068557 1830.540721581504) rotate(0 179.58552258711302 0)"><path d="M337.23 -7.86 C345.09 -6.51, 349.8 -4.72, 360.71 0.71 M337.23 -7.86 C342.46 -5.95, 346.3 -4.79, 360.71 0.71" stroke="#1e1e1e" stroke-width="4" fill="none"></path></g></g><mask></mask><g transform="translate(1889.5833435058594 1770) rotate(0 147.77499389648438 22.5)"><text x="147.77499389648438" y="31.536" font-family="Virgil, Segoe UI Emoji" font-size="36px" fill="#1e1e1e" text-anchor="middle" style="white-space: pre;" direction="ltr" dominant-baseline="alphabetic">Toggle Bookmark</text></g><g transform="translate(1910 1930) rotate(0 126.2750015258789 22.5)"><text x="126.2750015258789" y="31.536" font-family="Virgil, Segoe UI Emoji" font-size="36px" fill="#1e1e1e" text-anchor="middle" style="white-space: pre;" direction="ltr" dominant-baseline="alphabetic">Receive State</text></g><g stroke-linecap="round"><g transform="translate(1150 1290) rotate(0 390 -130)"><path d="M-0.47 1.2 C129.87 -42.02, 651.18 -216.53, 781.15 -260 M1.49 0.78 C131.85 -42.17, 651.35 -214.71, 780.8 -258.47" stroke="#1e1e1e" stroke-width="4" fill="none"></path></g></g><mask></mask><g stroke-linecap="round"><g transform="translate(1930 1030) rotate(0 240 0)"><path d="M-0.36 0.7 C79.63 0.59, 400.06 -0.7, 480.08 -1.01 M1.65 0.02 C81.48 0.06, 399.64 0.08, 479.18 0" stroke="#1e1e1e" stroke-width="4" fill="none"></path></g><g transform="translate(1930 1030) rotate(0 240 0)"><path d="M455.69 8.55 C464.2 6.1, 468.66 2.87, 479.18 0 M455.69 8.55 C461.36 7.47, 464.73 4.35, 479.18 0" stroke="#1e1e1e" stroke-width="4" fill="none"></path></g><g transform="translate(1930 1030) rotate(0 240 0)"><path d="M455.68 -8.55 C464.14 -5.68, 468.61 -3.57, 479.18 0 M455.68 -8.55 C461.4 -6.16, 464.77 -5.82, 479.18 0" stroke="#1e1e1e" stroke-width="4" fill="none"></path></g></g><mask></mask><g transform="translate(2006.3166732788086 950) rotate(0 170.9583282470703 22.5)"><text x="170.9583282470703" y="31.536" font-family="Virgil, Segoe UI Emoji" font-size="36px" fill="#1e1e1e" text-anchor="middle" style="white-space: pre;" direction="ltr" dominant-baseline="alphabetic">Browse Information</text></g><g stroke-linecap="round" transform="translate(2450 870) rotate(0 170 140)"><path d="M247.43 14.21 C263.61 18.6, 277.28 30.57, 289.65 40.95 C302.02 51.33, 313.71 63.56, 321.64 76.5 C329.56 89.44, 334.36 104.54, 337.2 118.57 C340.04 132.6, 341.15 146.63, 338.66 160.69 C336.17 174.74, 330.31 189.77, 322.27 202.89 C314.23 216.01, 303.02 229, 290.42 239.41 C277.81 249.82, 262.12 258.87, 246.67 265.35 C231.22 271.84, 214.8 276.06, 197.72 278.32 C180.64 280.59, 161.75 281.29, 144.19 278.96 C126.63 276.63, 107.91 271.12, 92.35 264.34 C76.8 257.56, 63.17 248.25, 50.85 238.26 C38.53 228.27, 26.45 217.06, 18.43 204.4 C10.41 191.75, 5.43 176.66, 2.73 162.35 C0.04 148.04, -0.52 132.91, 2.24 118.54 C5 104.17, 11.28 88.91, 19.31 76.15 C27.33 63.38, 38.04 51.94, 50.4 41.95 C62.75 31.96, 78.11 22.92, 93.44 16.19 C108.78 9.45, 125.16 4.05, 142.39 1.54 C159.61 -0.97, 178.01 -1.87, 196.79 1.13 C215.56 4.12, 244.29 15.59, 255.06 19.49 C265.82 23.38, 262.85 22.7, 261.36 24.49 M237.76 12.91 C253.72 16.58, 268.41 27.29, 281.35 36.44 C294.28 45.58, 306.4 55.66, 315.37 67.78 C324.33 79.89, 331.18 95.02, 335.15 109.11 C339.13 123.19, 340.6 137.54, 339.21 152.27 C337.83 167, 333.86 184.26, 326.83 197.48 C319.81 210.69, 309.03 220.86, 297.04 231.56 C285.05 242.27, 269.87 254.36, 254.88 261.71 C239.88 269.06, 224.04 272.89, 207.07 275.64 C190.1 278.39, 170.66 279.25, 153.04 278.21 C135.42 277.17, 117.26 274.99, 101.36 269.39 C85.47 263.78, 70.72 254.25, 57.67 244.6 C44.63 234.94, 32.17 224.08, 23.1 211.46 C14.03 198.85, 6.97 183.04, 3.26 168.89 C-0.45 154.75, -0.76 140.74, 0.84 126.59 C2.44 112.44, 6.08 97.31, 12.86 83.99 C19.64 70.67, 29.87 57.29, 41.54 46.67 C53.2 36.05, 67.32 27.55, 82.85 20.26 C98.38 12.97, 117.56 6.24, 134.74 2.94 C151.91 -0.35, 168.49 -1.18, 185.91 0.49 C203.32 2.15, 230.8 10.71, 239.24 12.94 C247.67 15.18, 238 11.9, 236.52 13.91" stroke="none" stroke-width="0" fill="#ffd8a8"></path><path d="M146.4 1.16 C162.59 -3.04, 182.11 -0.84, 199.39 1.56 C216.67 3.95, 234.66 8.78, 250.1 15.52 C265.54 22.26, 279.94 31.56, 292.03 41.98 C304.11 52.41, 314.81 64.8, 322.6 78.07 C330.39 91.34, 336.28 107.15, 338.78 121.6 C341.28 136.05, 340.82 150.57, 337.6 164.77 C334.38 178.96, 327.66 193.98, 319.48 206.77 C311.29 219.57, 301.17 231.6, 288.49 241.54 C275.8 251.48, 259.21 260.38, 243.37 266.41 C227.54 272.44, 210.78 275.9, 193.47 277.73 C176.17 279.57, 156.87 279.65, 139.52 277.41 C122.16 275.16, 104.83 271.11, 89.35 264.27 C73.88 257.44, 58.77 247.07, 46.67 236.39 C34.56 225.71, 24.3 213.17, 16.71 200.18 C9.13 187.2, 3.61 172.6, 1.13 158.46 C-1.34 144.33, -1.32 129.4, 1.86 115.37 C5.05 101.33, 12.01 87.05, 20.23 74.24 C28.45 61.43, 38.45 48.62, 51.18 38.49 C63.91 28.37, 78.97 19.82, 96.62 13.5 C114.27 7.18, 145.02 2.41, 157.08 0.56 C169.14 -1.28, 168.54 0.27, 168.99 2.41 M206.89 2.22 C223.77 3.15, 241.52 11.85, 256.9 19.32 C272.29 26.8, 287.85 36.31, 299.17 47.08 C310.49 57.84, 318.28 70.63, 324.81 83.92 C331.35 97.22, 336.76 112.16, 338.36 126.84 C339.97 141.53, 338.37 157.98, 334.44 172.04 C330.52 186.1, 323.42 199.16, 314.81 211.18 C306.19 223.2, 295.92 234.47, 282.76 244.15 C269.59 253.83, 252.3 263.13, 235.83 269.25 C219.37 275.37, 201.11 279.49, 183.95 280.86 C166.79 282.23, 149.51 281.1, 132.87 277.49 C116.22 273.88, 99.18 266.72, 84.1 259.21 C69.02 251.71, 54.31 243.13, 42.39 232.46 C30.46 221.79, 19.44 208.36, 12.57 195.19 C5.7 182.03, 2.51 167.77, 1.17 153.47 C-0.16 139.18, 0.97 123.55, 4.54 109.41 C8.12 95.27, 13.48 81.18, 22.63 68.62 C31.78 56.07, 45.86 43.76, 59.46 34.11 C73.07 24.46, 88.64 16.54, 104.25 10.71 C119.86 4.87, 135.75 0.31, 153.12 -0.91 C170.5 -2.13, 199.71 2.26, 208.51 3.38 C217.3 4.5, 206.82 3.44, 205.88 5.83" stroke="#ffd8a8" stroke-width="2" fill="none"></path></g><g transform="translate(2558.4085120847617 987.5050506338832) rotate(0 61.38333511352539 22.5)"><text x="61.38333511352539" y="31.536" font-family="Virgil, Segoe UI Emoji" font-size="36px" fill="#1e1e1e" text-anchor="middle" style="white-space: pre;" direction="ltr" dominant-baseline="alphabetic">Browse</text></g><g stroke-linecap="round"><g transform="translate(2871.989081211835 450.98295408437866) rotate(0 248.49557678539782 0)"><path d="M-0.02 0.45 C82.81 0.15, 413.12 -1.08, 495.91 -0.98 M-1.49 -0.35 C81.79 -0.61, 415.17 0.1, 498.06 0.05" stroke="#1e1e1e" stroke-width="4" fill="none"></path></g></g><mask></mask><g stroke-linecap="round"><g transform="translate(2871.080221595615 651.2972519545876) rotate(0 248.49557678539782 0)"><path d="M-1.08 -0.98 C81.71 -0.87, 413.57 1.08, 496.71 1.08 M0.55 1.13 C83.16 0.88, 412.81 -0.25, 495.61 -0.47" stroke="#1e1e1e" stroke-width="4" fill="none"></path></g></g><mask></mask><g transform="translate(2990.281199423596 530.0761982021243) rotate(0 113.73332977294922 22.5)"><text x="0" y="31.536" font-family="Virgil, Segoe UI Emoji" font-size="36px" fill="#1e1e1e" text-anchor="start" style="white-space: pre;" direction="ltr" dominant-baseline="alphabetic">User Details</text></g><g stroke-linecap="round"><g transform="translate(2770 870) rotate(0 110 -80)"><path d="M-0.01 1.14 C36.6 -25.5, 182.75 -132.1, 219.32 -158.82 M-1.48 0.7 C35.55 -25.72, 185.05 -133.37, 221.67 -160.32" stroke="#1e1e1e" stroke-width="4" fill="none"></path></g><g transform="translate(2770 870) rotate(0 110 -80)"><path d="M207.69 -139.59 C213.21 -146.36, 217.08 -151.92, 221.67 -160.32 M207.69 -139.59 C211.88 -147.53, 217.34 -155.74, 221.67 -160.32" stroke="#1e1e1e" stroke-width="4" fill="none"></path></g><g transform="translate(2770 870) rotate(0 110 -80)"><path d="M197.64 -153.43 C206.01 -156.44, 212.6 -158.24, 221.67 -160.32 M197.64 -153.43 C205.63 -156.25, 214.83 -159.31, 221.67 -160.32" stroke="#1e1e1e" stroke-width="4" fill="none"></path></g></g><mask></mask><g stroke-linecap="round"><g transform="translate(2850 1010) rotate(0 130 0)"><path d="M-0.66 0.94 C42.36 1.05, 215.29 -0.29, 258.85 -0.33 M1.2 0.39 C44.5 0.76, 217.78 1.31, 260.95 1.03" stroke="#1e1e1e" stroke-width="4" fill="none"></path></g><g transform="translate(2850 1010) rotate(0 130 0)"><path d="M237.47 9.6 C247.64 4.69, 254.05 4.61, 260.95 1.03 M237.47 9.6 C245.98 7.44, 253.69 4.3, 260.95 1.03" stroke="#1e1e1e" stroke-width="4" fill="none"></path></g><g transform="translate(2850 1010) rotate(0 130 0)"><path d="M237.45 -7.5 C247.49 -6.2, 253.91 -0.06, 260.95 1.03 M237.45 -7.5 C246 -3.54, 253.71 -0.56, 260.95 1.03" stroke="#1e1e1e" stroke-width="4" fill="none"></path></g></g><mask></mask><g stroke-linecap="round" transform="translate(3170 890) rotate(0 170 140)"><path d="M213.9 4.29 C230.63 5.52, 246.92 14.66, 261.71 22.42 C276.5 30.18, 291.36 39.56, 302.63 50.85 C313.9 62.14, 323.1 76.7, 329.32 90.14 C335.55 103.58, 339.06 117.3, 339.98 131.5 C340.89 145.7, 339.23 161.44, 334.81 175.36 C330.4 189.27, 323.06 202.69, 313.48 215 C303.89 227.31, 290.81 240.07, 277.28 249.21 C263.74 258.35, 248.62 264.64, 232.26 269.84 C215.91 275.04, 196.83 279.47, 179.16 280.41 C161.48 281.34, 142.91 279.37, 126.21 275.46 C109.51 271.54, 93.49 264.61, 78.95 256.9 C64.42 249.19, 50.19 240.12, 39.02 229.2 C27.85 218.28, 18.43 204.92, 11.92 191.4 C5.41 177.88, 0.91 162.45, -0.04 148.08 C-0.98 133.71, 1.6 119.06, 6.27 105.2 C10.93 91.33, 18.59 77.21, 27.95 64.91 C37.31 52.6, 48.93 40.59, 62.43 31.37 C75.94 22.14, 92.5 14.58, 108.97 9.55 C125.44 4.52, 140.4 1.19, 161.23 1.18 C182.07 1.17, 218.94 6.18, 234.01 9.48 C249.08 12.79, 252.77 18.6, 251.64 21 M104.19 11.65 C118.4 4.27, 139.07 0.71, 156.72 -0.83 C174.36 -2.37, 193.1 -0.98, 210.06 2.4 C227.02 5.78, 243.86 11.68, 258.47 19.46 C273.07 27.24, 286.46 37.88, 297.67 49.09 C308.87 60.3, 318.79 73.53, 325.69 86.7 C332.59 99.87, 337.28 113.92, 339.08 128.08 C340.87 142.25, 340.54 157.46, 336.45 171.69 C332.35 185.92, 323.86 201.05, 314.5 213.46 C305.13 225.88, 293.54 236.87, 280.24 246.16 C266.94 255.44, 250.59 263.74, 234.69 269.17 C218.78 274.61, 202.27 277.85, 184.81 278.79 C167.35 279.72, 146.98 278, 129.95 274.8 C112.92 271.59, 97.65 266.63, 82.66 259.54 C67.66 252.46, 51.53 243.22, 39.99 232.3 C28.45 221.38, 20.04 207.66, 13.41 194.03 C6.77 180.41, 1.66 164.88, 0.16 150.56 C-1.34 136.24, 0.45 121.98, 4.4 108.11 C8.35 94.24, 14.72 79.72, 23.85 67.34 C32.98 54.95, 45.82 43.02, 59.19 33.82 C72.55 24.61, 96.52 15.35, 104.06 12.09 C111.59 8.83, 103.19 12.21, 104.39 14.24" stroke="none" stroke-width="0" fill="#ffd8a8"></path><path d="M237.84 12.51 C253.93 16.1, 268.85 26.77, 281.84 36.05 C294.83 45.34, 306.84 56, 315.78 68.22 C324.71 80.44, 331.54 95.29, 335.44 109.37 C339.35 123.45, 340.7 138.12, 339.21 152.72 C337.71 167.32, 333.51 183.77, 326.49 196.99 C319.47 210.2, 308.95 221.28, 297.08 232.01 C285.21 242.75, 270.31 254.05, 255.28 261.38 C240.25 268.71, 223.91 273.14, 206.9 276 C189.88 278.87, 170.74 279.75, 153.18 278.59 C135.63 277.42, 117.52 274.69, 101.57 269.03 C85.63 263.37, 70.57 254.27, 57.51 244.64 C44.44 235.01, 32.2 223.83, 23.2 211.27 C14.2 198.71, 7.23 183.42, 3.5 169.3 C-0.23 155.17, -0.8 140.74, 0.83 126.52 C2.47 112.3, 6.45 97.28, 13.31 83.99 C20.16 70.71, 30.32 57.48, 41.97 46.81 C53.62 36.13, 67.82 27.22, 83.21 19.93 C98.6 12.64, 117.15 6.29, 134.3 3.05 C151.46 -0.18, 168.1 -1.25, 186.12 0.55 C204.13 2.35, 232.84 11.16, 242.41 13.85 C251.99 16.55, 244.97 14.67, 243.55 16.7 M131.1 3.72 C146.72 -1.06, 168.46 0.54, 186.19 1.91 C203.92 3.29, 221.51 6.59, 237.46 11.99 C253.42 17.39, 268.93 24.92, 281.93 34.31 C294.93 43.7, 306.37 55.93, 315.46 68.33 C324.55 80.74, 332.53 94.76, 336.5 108.73 C340.47 122.69, 340.99 138, 339.29 152.12 C337.59 166.24, 333.16 180.01, 326.32 193.45 C319.48 206.88, 309.79 221.73, 298.25 232.74 C286.71 243.75, 272.16 252.04, 257.07 259.48 C241.97 266.93, 224.72 274.04, 207.68 277.4 C190.64 280.75, 172.04 280.8, 154.84 279.61 C137.64 278.42, 120.69 275.95, 104.48 270.25 C88.27 264.55, 71.08 255.21, 57.57 245.41 C44.06 235.6, 32.26 223.72, 23.43 211.42 C14.61 199.11, 8.29 185.78, 4.63 171.59 C0.97 157.41, 0.22 140.49, 1.47 126.32 C2.73 112.16, 5.65 99.81, 12.17 86.59 C18.69 73.36, 29 58.04, 40.6 46.97 C52.2 35.9, 66.39 27.32, 81.78 20.18 C97.17 13.03, 124.4 6.26, 132.94 4.1 C141.47 1.94, 132.74 5.05, 132.99 7.22" stroke="#ffd8a8" stroke-width="2" fill="none"></path></g><g transform="translate(3275.800182311812 1007.5050506338832) rotate(0 63.99166488647461 22.5)"><text x="63.99166488647461" y="31.536" font-family="Virgil, Segoe UI Emoji" font-size="36px" fill="#1e1e1e" text-anchor="middle" style="white-space: pre;" direction="ltr" dominant-baseline="alphabetic">Update</text></g><g stroke-linecap="round"><g transform="translate(3270 870) rotate(0 -50 -80)"><path d="M0.88 0.42 C-15.63 -26.15, -82.71 -132.52, -99.69 -159.27 M-0.11 -0.41 C-16.71 -27.34, -84.05 -134.61, -100.47 -161" stroke="#1e1e1e" stroke-width="4" fill="none"></path></g><g transform="translate(3270 870) rotate(0 -50 -80)"><path d="M-80.77 -145.62 C-85.04 -148.82, -89.46 -154.87, -100.47 -161 M-80.77 -145.62 C-86.15 -149.99, -91.65 -153.9, -100.47 -161" stroke="#1e1e1e" stroke-width="4" fill="none"></path></g><g transform="translate(3270 870) rotate(0 -50 -80)"><path d="M-95.27 -136.55 C-95.91 -142.13, -96.69 -150.46, -100.47 -161 M-95.27 -136.55 C-96.41 -143.73, -97.64 -150.32, -100.47 -161" stroke="#1e1e1e" stroke-width="4" fill="none"></path></g></g><mask></mask><g transform="translate(386.3455825258552 355.9675074469683) rotate(322.7344136484961 182.59165954589844 22.5)"><text x="182.59165954589844" y="31.536" font-family="Virgil, Segoe UI Emoji" font-size="36px" fill="#1e1e1e" text-anchor="middle" style="white-space: pre;" direction="ltr" dominant-baseline="alphabetic">Retrieve Information</text></g><g transform="translate(515.5074997319734 1089.0081498085349) rotate(32.25184928127186 42.125 22.5)"><text x="42.125" y="31.536" font-family="Virgil, Segoe UI Emoji" font-size="36px" fill="#1e1e1e" text-anchor="middle" style="white-space: pre;" direction="ltr" dominant-baseline="alphabetic">Login</text></g><g stroke-linecap="round"><g transform="translate(1530 670) rotate(0 20 40)"><path d="M-0.4 0.49 C6.28 14.09, 32.79 67.54, 39.66 80.82 M1.59 -0.3 C8.12 13.03, 32.04 65.48, 38.54 79.13" stroke="#1e1e1e" stroke-width="4" fill="none"></path></g><g transform="translate(1530 670) rotate(0 20 40)"><path d="M20.88 61.44 C26.3 65.67, 31.58 72.4, 38.54 79.13 M20.88 61.44 C26.99 67.54, 32.3 73, 38.54 79.13" stroke="#1e1e1e" stroke-width="4" fill="none"></path></g><g transform="translate(1530 670) rotate(0 20 40)"><path d="M36.38 54.23 C37.61 60.33, 38.75 68.99, 38.54 79.13 M36.38 54.23 C37.59 62.69, 38 70.42, 38.54 79.13" stroke="#1e1e1e" stroke-width="4" fill="none"></path></g></g><mask></mask><g transform="translate(1310 710) rotate(0 55.80833435058594 22.5)"><text x="55.80833435058594" y="31.536" font-family="Virgil, Segoe UI Emoji" font-size="36px" fill="#1e1e1e" text-anchor="middle" style="white-space: pre;" direction="ltr" dominant-baseline="alphabetic">Submit</text></g><g transform="translate(1610 670) rotate(0 73.14167022705078 45)"><text x="73.14167022705078" y="31.536" font-family="Virgil, Segoe UI Emoji" font-size="36px" fill="#1e1e1e" text-anchor="middle" style="white-space: pre;" direction="ltr" dominant-baseline="alphabetic">Receive </text><text x="73.14167022705078" y="76.536" font-family="Virgil, Segoe UI Emoji" font-size="36px" fill="#1e1e1e" text-anchor="middle" style="white-space: pre;" direction="ltr" dominant-baseline="alphabetic">State</text></g><g stroke-linecap="round"><g transform="translate(2510 830) rotate(0 -120 -160)"><path d="M1.06 0.82 C-39.14 -52.26, -200.9 -265.49, -241.19 -319.09 M0.16 0.2 C-39.7 -53.15, -198.77 -267.38, -239.1 -320.73" stroke="#1e1e1e" stroke-width="4" fill="none"></path></g><g transform="translate(2510 830) rotate(0 -120 -160)"><path d="M-218.18 -307.05 C-223.11 -313, -229.32 -316.31, -239.1 -320.73 M-218.18 -307.05 C-222.41 -311.21, -227.12 -313.52, -239.1 -320.73" stroke="#1e1e1e" stroke-width="4" fill="none"></path></g><g transform="translate(2510 830) rotate(0 -120 -160)"><path d="M-231.87 -296.8 C-232.58 -306, -234.63 -312.42, -239.1 -320.73 M-231.87 -296.8 C-232.97 -303.27, -234.47 -307.97, -239.1 -320.73" stroke="#1e1e1e" stroke-width="4" fill="none"></path></g></g><mask></mask></svg>